<svg xmlns="http://www.w3.org/2000/svg" version="1.1" xmlns:xlink="http://www.w3.org/1999/xlink" xmlns:svgjs="http://svgjs.dev/svgjs" width="512" height="512"><svg xmlns="http://www.w3.org/2000/svg" version="1.1" viewBox="0 0 512 512">
  <defs>
    <style>
      .cls-1 {
        fill: #ffe5c2;
      }

      .cls-2 {
        fill: #7acaa6;
      }

      .cls-3 {
        fill: #57be92;
      }

      .cls-4 {
        fill: #fed2a4;
      }

      .cls-5 {
        fill: #0c2149;
      }
    </style>
  </defs>
  <!-- Generator: Adobe Illustrator 28.7.1, SVG Export Plug-In . SVG Version: 1.2.0 Build 142)  -->
  <g>
    <g id="SvgjsG1011">
      <g id="SvgjsG1010" data-name="Layer_1">
        <g>
          <path class="cls-4" d="M409.9,460.1l94.6,7v-119.1l-99.9-6,5.3,118.1Z"></path>
          <path class="cls-1" d="M339.3,317.7c-7,.2-13.6-2.8-17.8-8.4l-38.5-51c-9-12-26.1-14.3-38-5.3-11.9,9-14.3,26-5.2,38l42.2,55.6,36.5,48c30.1,39.6,56.8,31.2,92.5,27.5l14.6-34.4c0-65.1-65.9-70.7-86.1-70.1h-.2Z"></path>
          <path class="cls-4" d="M339.3,317.7c-7,.2-13.6-2.8-17.8-8.4l-38.5-51c-9-12-26.1-14.3-38-5.3-1,.7-1.9,1.5-2.7,2.4,4.2,1.8,7.9,4.7,10.8,8.5l38.5,51c4.2,5.6,10.9,8.6,17.8,8.4,20.2-.7,86.1,5,86.1,70.1l-13.5,31.8c9.1-.6,18.6-2,28.9-3.1l14.6-34.4c0-65.1-65.9-70.7-86.1-70.1h-.1Z"></path>
          <path class="cls-2" d="M275.1,175.6c-21.8,70.3-36.3,129.1-36.3,129.1,0,0,56.6-41.8,78.4-112.1,18.4-59.5.8-115.3-5.1-131.1-.5-1.5-2.6-1.4-3,0-3.9,13.6-16.1,56.4-34,114h0Z"></path>
          <path class="cls-3" d="M312.1,61.5c-.5-1.5-2.6-1.4-3,0-2.5,8.7-8.4,29.4-17.1,58.4,4.4,22.2,6.3,49.3.4,77.9-9.9,47.7-36.2,84.4-52.8,103.7-.5,2-.8,3.1-.8,3.1,0,0,56.6-41.8,78.4-112.1,18.4-59.5.8-115.3-5.1-131.1h0Z"></path>
          <path class="cls-2" d="M333.2,222c-42.9,48-94.4,82.7-94.4,82.7,0,0,69.4-5,117.5-47.8,40.8-36.3,37.1-92,35-108-.2-1.5-2.2-1.9-3-.6-6.3,10.4-25.4,40.5-55.2,73.9h0v-.2Z"></path>
          <path class="cls-3" d="M388.4,148.2c-3.9,6.4-12.6,20.3-25.7,37.8-1.9,23.5-9.9,54.2-35.7,77.1-24.4,21.7-54.3,33.7-77.8,40.3,21.2-3.2,70.4-13.8,107.1-46.6,40.8-36.3,37.1-92,35-108-.2-1.5-2.2-1.9-3-.6h.1Z"></path>
          <path class="cls-3" d="M295.2,310.9c-33,3.4-56.3-6.2-56.3-6.2,0,0,24,41.5,57,38.1,26.6-2.7,48.1-32,55.4-43.3.9-1.3-.5-3-2-2.4-8.9,3.7-29.6,11.3-54.2,13.8h.1Z"></path>
          <path class="cls-2" d="M152.9,202c48.9,55.2,86.3,102.8,86.3,102.8,0,0-68.9-14.8-117.7-69.9-41.3-46.6-48.2-104.8-49.4-121.6,0-1.5,1.8-2.3,2.8-1.1,9.1,10.8,37.9,44.7,78,89.9h0Z"></path>
          <path class="cls-3" d="M123.2,208.3c34.5,39,75.2,73.6,96.1,90.6,12,4.2,19.6,5.8,19.6,5.8,0,0-37.4-47.6-86.3-102.8-40-45.2-68.8-79.1-78-89.9-1-1.2-2.9-.4-2.8,1.1.2,3.5.7,8.9,1.8,15.6,11.2,23.6,27.1,53.9,49.7,79.4v.2Z"></path>
          <path class="cls-2" d="M118.7,268.2c58.9,26.1,120.1,36.5,120.1,36.5,0,0-65.3,24-126.8,4.7-52.1-16.4-71.7-68.6-76.5-84.1-.4-1.5,1.2-2.7,2.4-1.8,10,6.9,39.9,26.5,80.7,44.6h.1Z"></path>
          <path class="cls-3" d="M98.4,281c38.6,17.1,82.4,27.1,108.1,32,19.6-3.6,32.4-8.3,32.4-8.3,0,0-61.2-10.4-120.1-36.5-40.8-18.1-70.7-37.7-80.7-44.6-1.3-.9-2.9.3-2.4,1.8,1.8,5.9,5.8,17.2,12.9,29.7,14.8,8.7,32.2,18,49.9,25.9h0Z"></path>
          <path class="cls-3" d="M190.1,333.5c31.5-10.5,48.8-28.8,48.8-28.8,0,0-4.8,47.7-36.3,58.1-25.3,8.4-57-9.4-68.4-16.7-1.3-.8-.8-2.9.8-2.9,9.6-.3,31.6-1.9,55.1-9.7Z"></path>
          <path class="cls-2" d="M230.9,127.3c16.6,77.1,7.9,177.4,7.9,177.4,0,0-49.3-87.9-65.9-165-14.6-67.5.8-104.3,4.8-112.4.5-.9,1.6-1.2,2.4-.5,7,5.7,36.2,32.9,50.7,100.4h.1Z"></path>
          <path class="cls-3" d="M180.2,26.8c-.8-.6-2-.4-2.4.5-1.7,3.4-5.5,12.1-8.1,26.2,12.1,16.3,26.7,42.8,35.2,82.3,9.8,45.2,16.6,103,20.6,143.1,7.9,15.9,13.5,25.7,13.5,25.7,0,0,8.7-100.4-7.9-177.4-14.6-67.5-43.8-94.7-50.7-100.4h-.2Z"></path>
          <path class="cls-4" d="M159.3,358.3l-108-56.3c-14.7-7.6-32.7-2-40.4,12.7-7.7,14.7-2,32.7,12.7,40.4l108,56.3c11.6,6,25.2,3.8,34.3-4.6,2.4-2.3,4.5-5,6.1-8.1,7.7-14.7,2-32.7-12.7-40.4h0Z"></path>
          <path class="cls-1" d="M435.1,426.2c0-48.5-37.4-77.5-88.4-73.5s-124.8,54.1-124.8,54.1l-117.7-92.3c-13-10.2-31.8-7.9-42.1,5-10.2,13-8,31.8,5.1,42l149.9,117.6c5.3,4.2,11.8,6.4,18.5,6.4s2.9-.1,4.4-.3l113.9-16.8,56-8.3c16.4-2.4,25.3-17.4,25.3-34h0Z"></path>
          <path class="cls-4" d="M364.5,352.6c22.8,11.9,37.1,34.4,37.1,64.3s-8.9,31.6-25.3,34l-56,8.3-108.3,16,5.1,4c5.3,4.2,11.8,6.4,18.5,6.4s2.9-.1,4.4-.3l113.9-16.8,56-8.3c16.4-2.4,25.3-17.4,25.3-34,0-42.6-29-70.2-70.6-73.5h-.1Z"></path>
          <path class="cls-5" d="M504.9,340.6l-92.2-5.6c-8.6-8.5-19.7-15-33.4-19.3-9.8-3.1-19.3-4.5-26.7-5.2,1.9-2.6,3.6-5,4.9-7,4.9-7.4-2.9-16.8-11.1-13.4-4.4,1.8-12.9,5.1-23.9,8l-5.4-7.2c73.8-32.4,87.8-94.2,81.7-143.2-.5-3.8-3.4-7-7.2-7.8-3.8-.8-7.7.9-9.7,4.2-6.7,11-25.3,40.2-54.3,72.7-8,9-16.4,17.5-24.7,25.4,42.1-65.9,31.4-145.3,16.2-183.6-1.4-3.7-5-6.1-8.9-5.9-3.9.2-7.3,2.8-8.4,6.6-3.7,15.3-41.2,136.3-53.2,179.3,1.5-79-16.5-180.4-63.7-217.8-4.3-3.7-11.5-2.1-13.9,3-2,4.1-7.1,15.7-9.9,34.5-.6,4.1,2.2,7.9,6.3,8.5s7.9-2.2,8.5-6.3c1.4-9.8,3.5-17.3,5.3-22.4,49.9,48.5,55.4,174,51.6,239-15.6-31.2-41.6-87.9-52.7-139-3.3-15.3-5.2-30-5.8-43.9-.2-4.1-3.7-7.3-7.8-7.2-4.1.2-7.4,3.7-7.2,7.8,1.7,50.9,23.2,108.9,42.9,153-12.8-15.2-27.7-32.7-43.9-50.9-39.3-44.4-67.5-77.6-77.8-89.8-2.5-3-6.7-4.1-10.4-2.6-3.7,1.5-5.9,5.1-5.7,9.1,1.9,41.6,25.2,118.3,90.7,160.9-11-3.9-22.3-8.3-33.6-13.3-39.9-17.7-68.9-36.6-79.5-44-3.2-2.2-7.4-2.1-10.5.2-3.1,2.3-4.5,6.3-3.3,10,4,13,17.8,50,50.6,73.6-2.8.5-5.6,1.3-8.3,2.5l-15.9-8.3c-18.3-9.5-41-2.4-50.5,15.9-9.7,17.6-2.2,41.6,15.8,50.5l105,54.8h.2l87.2,68.4c8,6.3,18.5,9.1,28.6,7.6l106.4-15.7c4.1-.6,6.9-4.4,6.3-8.5s-4.4-6.9-8.5-6.3l-106.4,15.7c-6,.9-12.4-.8-17.2-4.6l-149.9-117.6c-4.7-3.7-7.7-9-8.4-15-.7-5.9.9-11.8,4.6-16.5,7.7-9.7,21.8-11.4,31.5-3.8l117.7,92.3c2.6,2,6.1,2.1,8.8.3.7-.5,72.8-49.1,121.2-52.9,44.5-3.8,80.6,21.1,80.3,66.1,0,4.1,3.4,7.5,7.5,7.5s7.5-3.4,7.5-7.5c0-24-8.4-44.4-24.3-59.1-17.6-16.3-43.3-24.1-72.2-21.9-14.6,1.1-30.9,5.8-46.8,12l-5.1-6.7c.8,0,1.6-.1,2.4-.2,17.5-1.8,32.7-13.3,44-25.1,8.7-.1,52.4.7,69.9,31.4,2.1,3.6,6.7,4.8,10.2,2.8,3-1.7,4.4-5.3,3.5-8.5l72.8,4.4v103.9l-86.6-6.4h-1.6l-27.6,4.1c-4.1.6-6.9,4.4-6.3,8.5s4.4,6.9,8.5,6.3l26.8-4,93.8,7c4.2.4,8.2-3.2,8.1-7.5v-119.1c0-4-3.1-7.2-7.1-7.5h0l.2.3ZM306.4,301.8c-3.9.7-7.9,1.3-12,1.7-4.5.5-8.8.7-12.8.7,6.7-1.9,13.9-4.2,21.3-7.1l3.6,4.7h-.1ZM166.2,353.5l-6.5-5.1c20.9-2.6,50.9-12.8,67-24.4-4.3,12.5-12.2,27-26.4,31.7-9.2,3.1-20.6,2.3-34.1-2.2h0ZM187.7,326.4c-17.1,5.7-33.4,8-44.8,8.9l-19.1-15c25.1,5.5,52.1,5.1,75.9,1.5-3.7,1.7-7.7,3.2-12,4.7h0ZM338.8,227c20.7-23.1,36.2-44.7,46.2-59.6,1.7,71.4-52.2,108.9-116.1,124.4,19-14.9,45.7-37.7,69.9-64.8h0ZM282.3,177.8c12.7-40.9,22.5-74.1,28.6-95.2,6.3,24.3,12.4,65.1-.8,107.8-13.2,42.6-40,74.6-57.9,92.4,6.2-23.6,16.8-62.3,30.1-105h0ZM127.1,229.8c-29.6-33.4-40.9-73.2-45.1-97.9,28.2,33.3,109.6,124.6,136,158.3-23.7-8.9-61.3-27-90.8-60.4h0ZM49.1,239.7c15.2,9.5,38.2,22.7,66.6,35.3,33.3,14.8,66.9,24.5,90.5,30.3-23.9,4.4-58.7,7.3-91.9-3.1-36.3-11.4-55.8-41.8-65.2-62.5h0ZM16,335.3c-1.8-5.7-1.2-11.8,1.5-17.1,5.7-11,19.3-15.2,30.3-9.5l9.4,4.9c-13.4,14.9-11.5,39.9,3.9,52.7l-34.2-17.8c-5.3-2.8-9.2-7.4-11-13.2h.1ZM222.3,397.5l-31.9-25c5.1-.2,10-1,14.5-2.6,16.9-5.6,27-19.9,33-33.7l9.9,45.8c-11.4,6.4-20.4,12.1-25.6,15.5h.1ZM261.6,374.6l-8.9-41.4c5.6,5,12.1,9.8,19.5,13l12.9,17c-8.2,3.7-16.1,7.6-23.5,11.4ZM295.1,335.3c-14.9,1.5-28.1-8.4-37.2-18,10.1,1.6,23.1,2.6,38,1.1,14.2-1.5,27.1-4.5,37.4-7.6-9.5,10.9-23.2,23-38.3,24.6h.1Z"></path>
        </g>
      </g>
    </g>
  </g>
</svg><style>@media (prefers-color-scheme: light) { :root { filter: none; } }
@media (prefers-color-scheme: dark) { :root { filter: none; } }
</style></svg>