<svg width="384" xmlns="http://www.w3.org/2000/svg" height="512" fill="none"><g data-testid="award-sharp-solid" style="fill: rgb(0, 0, 0);"><path d="m192 0 43.7 28.8 52.3-3.1 23.5 46.8L358.3 96l-3.1 52.3L384 192l-28.8 43.7 3.1 52.3-46.8 23.5-23.5 46.8-52.3-3.1L192 384l-43.7-28.8-52.3 3.1-23.5-46.8L25.7 288l3.1-52.3L0 192l28.8-43.7L25.7 96l46.8-23.5L96 25.7l52.3 3.1L192 0Zm80 192c0-44.183-35.817-80-80-80s-80 35.817-80 80 35.817 80 80 80 80-35.817 80-80ZM0 456l49.8-118.4 17.6 35 9.4 18.8 21-1.2 41.7-2.4 31.9 21L128 512l-52.2-56H0Zm256 56-43.5-103.2 31.9-21 41.7 2.4 21 1.2 9.4-18.8 17.6-35L384 456h-75.8L256 512Z" style="fill: rgb(82, 182, 139); fill-opacity: 1;" class="fills" data-testid="svg-path"/></g></svg>