<?xml version="1.0" encoding="UTF-8"?>
<svg xmlns="http://www.w3.org/2000/svg" version="1.1" viewBox="0 0 512 512">
  <defs>
    <style>
      .cls-1 {
        fill: #e19974;
      }

      .cls-2 {
        fill: #dc8758;
      }

      .cls-3 {
        fill: #fedba6;
      }

      .cls-4 {
        fill: #7acaa6;
      }

      .cls-5 {
        fill: #57be92;
      }

      .cls-6 {
        fill: #0c2149;
      }
    </style>
  </defs>
  <!-- Generator: Adobe Illustrator 28.7.1, SVG Export Plug-In . SVG Version: 1.2.0 Build 142)  -->
  <g>
    <g id="Layer_1">
      <g>
        <path class="cls-1" d="M423,504.5H89.1c-7.3,0-13.1-6.1-12.9-13.4l14.4-379.7c.3-6.9,5.9-12.4,12.9-12.4h305.2c6.9,0,12.6,5.5,12.9,12.4l14.4,379.7c.3,7.3-5.6,13.4-12.9,13.4h0Z"/>
        <path class="cls-2" d="M421.5,111.4c-.3-6.9-5.9-12.4-12.9-12.4h-30c6.9,0,12.6,5.5,12.9,12.4l14.4,379.7c.3,7.3-5.6,13.4-12.9,13.4h30c7.3,0,13.1-6.1,12.9-13.4l-14.4-379.7Z"/>
        <g>
          <circle class="cls-3" cx="139.8" cy="160" r="16"/>
          <circle class="cls-3" cx="372.2" cy="160" r="16"/>
        </g>
        <path class="cls-5" d="M294.3,316c-22,39.3-38.2,72.5-38.2,72.5,0,0,39.1-12.6,61.2-51.8,18.6-33.2,15.3-74,13.8-84.2-.1-.9-1.4-1.2-1.8-.3-4,7.6-16.9,31.6-34.9,63.8Z"/>
        <path class="cls-5" d="M322.9,351.2c-31.7,23.2-66.9,37.3-66.9,37.3,0,0,42,12.4,76.2-7,29-16.5,33.9-56.7,34.8-66.6,0-.9-1-1.4-1.7-.8-5.1,5.4-20.4,21-42.4,37.1Z"/>
        <g>
          <path class="cls-4" d="M217.8,316c22,39.3,38.2,72.5,38.2,72.5,0,0-39.1-12.6-61.2-51.8-18.6-33.2-15.3-74-13.8-84.2.1-.9,1.4-1.2,1.8-.3,4,7.6,16.9,31.6,34.9,63.8h0Z"/>
          <path class="cls-4" d="M189.1,351.2c31.7,23.2,66.9,37.3,66.9,37.3,0,0-42,12.4-76.2-7-29-16.5-33.9-56.7-34.8-66.6,0-.9,1-1.4,1.7-.8,5.1,5.4,20.4,21,42.4,37.1Z"/>
          <path class="cls-4" d="M274.1,281.4c0,48.2-18.1,107.1-18.1,107.1,0,0-18.1-58.9-18.1-107.1s13.9-62.3,17.3-66.6c.4-.5,1.1-.5,1.5,0,3.4,4.3,17.3,24.3,17.3,66.6Z"/>
        </g>
        <g>
          <path class="cls-6" d="M349.8,497H88.9c-1.5,0-2.9-.6-3.9-1.7-1-1.1-1.6-2.5-1.5-3.9l10.7-282.5c.2-4.1-3.1-7.6-7.2-7.8-4.2-.2-7.6,3.1-7.8,7.2l-10.7,282.5c-.7,11.2,9.1,21.4,20.4,21.1h260.9c9.9-.3,9.9-14.7,0-15h0Z"/>
          <path class="cls-6" d="M429.1,111.1c-.4-11-9.4-19.6-20.4-19.6h-31.5C367.1,34.9,321.3-1.5,256.8,0c-64.8-1.4-110.6,34.7-121.6,91.5h-31.9c-11,0-20,8.6-20.4,19.6l-2.3,62c-.2,4.1,3.1,7.6,7.2,7.8,4.1.1,7.6-3.1,7.8-7.2l2.3-62c.1-2.9,2.5-5.2,5.4-5.2h29.4c-1.6,13.6-1.3,25-.8,31.4-24.4,9.2-18.5,45.1,8,45.6,26.9-.6,32.3-37.5,7.1-45.9-.4-5.8-.8-17.3,1-31.1h216.5c1.6,13.9,1.1,25.5.6,31.1-25.1,8.6-19.6,45.3,7.2,45.8,26.5-.5,32.4-36.6,7.8-45.7.5-6.5,1-17.8-.5-31.3h29.2c2.9,0,5.3,2.3,5.4,5.2l14.4,379.7c0,1.5-.5,2.9-1.5,3.9-1,1.1-2.4,1.7-3.9,1.7h-37.3c-9.9.3-9.9,14.7,0,15h37.3c5.6,0,10.8-2.2,14.7-6.2,3.9-4,5.9-9.3,5.7-14.9l-14.4-379.7ZM139.8,168.5c-4.7,0-8.5-3.8-8.5-8.5.4-11.3,16.6-11.3,17,0,0,4.7-3.8,8.5-8.5,8.5ZM372.2,168.5c-4.7,0-8.5-3.8-8.5-8.5.4-11.3,16.6-11.3,17,0,0,4.7-3.8,8.5-8.5,8.5ZM150.6,91.5c10.7-48.7,49.9-77.6,106.1-76.5,56.2-1.1,95,27.7,105.1,76.5h-211.2Z"/>
          <path class="cls-6" d="M369.5,307.1c-3.3-1.5-7.2-.7-9.6,1.9-5,5.3-18.1,18.6-37.1,33,21.9-36.4,16.6-86,15.6-90.6-.5-3.6-3.3-6.5-6.9-7.1-3.6-.6-7.2,1.1-8.9,4.4-3.6,6.7-16.6,31.2-34.8,63.6-3.8,6.8-7.5,13.5-10.9,19.8,9.2-47,5.1-98.8-14.2-122-3.2-4.2-10.1-4.2-13.2,0-19.3,23.1-23.3,75.3-14.2,122-3.4-6.3-7.1-13-10.9-19.8-18.2-32.5-31.3-56.9-34.8-63.6-1.7-3.3-5.3-5-8.9-4.4-3.6.6-6.4,3.5-6.9,7.1-1,4.5-6.3,54.2,15.6,90.6-19-14.4-32.1-27.7-37.1-33-2.5-2.6-6.3-3.4-9.6-1.9-3.3,1.5-5.3,4.9-5,8.5,3.7,43.3,26.7,84.9,87.6,84.4,14.6,0,26.2-2.5,30.9-3.7,20.1,5.5,56.4,6.1,79.9-8.2,31.6-18,37.5-60,38.5-72.5.3-3.6-1.7-7-5-8.5h0ZM300.8,319.7c9.6-17.1,17.7-31.8,23.8-43.1-.4,15.9-3.4,37.6-14,56.5-10.7,19.1-25.9,31.4-37.9,38.9,6.8-13.3,16.7-32.1,28-52.3ZM256,227.8c17.7,31.8,9.2,95.1,0,131.2-9.2-36.2-17.7-99.4,0-131.2ZM187.4,276.5c13,24.1,40.3,72.2,51.8,95.4-12-7.5-27.2-19.9-37.9-38.9-10.6-18.9-13.5-40.5-14-56.5ZM183.5,375c-16-9.1-23.8-26.9-27.6-41.3,17.9,17.5,52.9,41.2,74.3,51.2-13.7.6-31.1-1-46.7-9.8h0ZM328.5,375c-15.4,8.8-32.9,10.4-46.6,9.8,12.9-6.5,29.5-15.9,45.4-27.5,11.6-8.5,21.3-16.8,28.8-23.6-3.8,14.5-11.6,32.2-27.6,41.3Z"/>
        </g>
      </g>
    </g>
  </g>
</svg>