<?xml version="1.0" encoding="UTF-8"?>
<svg xmlns="http://www.w3.org/2000/svg" version="1.1" viewBox="0 0 512 512">
  <defs>
    <style>
      .cls-1 {
        fill: #7acaa6;
      }

      .cls-2 {
        fill: #0c2049;
      }

      .cls-3 {
        fill: #57be92;
      }
    </style>
  </defs>
  <!-- Generator: Adobe Illustrator 28.7.1, SVG Export Plug-In . SVG Version: 1.2.0 Build 142)  -->
  <g>
    <g id="Layer_1">
      <g>
        <path class="cls-1" d="M334,214.2c-45,79.9-78,147.7-78,147.7,0,0,79.9-36,124.9-116,38-67.6,31.2-140.2,28.2-161-.3-1.9-2.8-2.3-3.7-.6-8.2,15.5-34.4,64.4-71.2,129.9Z"/>
        <path class="cls-3" d="M409,84.9c-.3-1.9-2.8-2.3-3.7-.6-4,7.5-12.2,22.9-23.9,44.3-.8,32.2-7.2,75.7-30.6,117.3-23.2,41.3-55.7,70.8-81.7,89.8-8.4,16.5-13.1,26.2-13.1,26.2,0,0,79.9-36,124.9-116,38-67.6,31.2-140.2,28.2-161h0Z"/>
        <path class="cls-1" d="M392.6,286c-64.8,47.3-136.6,75.9-136.6,75.9,0,0,85.8,12.1,155.5-27.5,59.1-33.6,69.3-102.3,71-122.4.2-1.9-2.1-2.9-3.4-1.5-10.4,11-41.6,42.7-86.5,75.5h0Z"/>
        <path class="cls-3" d="M479.1,210.5c-5.3,5.7-16.2,16.8-31.5,30.7-7.3,29.2-24.7,69.8-66,93.2-36.8,20.9-78.2,27.4-108.9,28.9,28.3,1.4,87.9,0,138.9-28.9,59.1-33.6,69.3-102.3,71-122.4.2-1.9-2.1-2.9-3.4-1.5h0Z"/>
        <path class="cls-1" d="M322.9,384.2c-41-4.5-66.9-22.3-66.9-22.3,0,0,18.3,56.8,59.4,61.3,33,3.6,66.9-26.4,78.8-38.2,1.4-1.4.2-3.7-1.8-3.4-11.8,2.2-38.9,6-69.5,2.6h0Z"/>
        <path class="cls-3" d="M392.4,381.6c-6,1.1-15.9,2.6-28.3,3.4-9.4,9.3-32.2,29.7-57.6,36.3,2.8.9,5.7,1.5,8.8,1.8,33,3.6,66.9-26.4,78.8-38.2,1.4-1.4.2-3.7-1.8-3.4Z"/>
        <path class="cls-1" d="M178,214.2c45,79.9,78,147.7,78,147.7,0,0-79.9-36-124.9-116-38-67.6-31.2-140.2-28.2-161,.3-1.9,2.8-2.3,3.7-.6,8.2,15.5,34.4,64.4,71.2,129.9Z"/>
        <path class="cls-3" d="M148,214.2c27.9,49.6,108,147.7,108,147.7,0,0-33.1-67.8-78-147.7-36.8-65.5-63-114.4-71.2-129.9-.9-1.7-3.5-1.3-3.7.6-1.2,8-2.9,23.6-2.4,43.6,12.3,22.6,28.4,51.9,47.4,85.6Z"/>
        <path class="cls-1" d="M119.4,286c64.8,47.3,136.6,75.9,136.6,75.9,0,0-85.8,12.1-155.5-27.5-59.1-33.6-69.3-102.3-71-122.4-.2-1.9,2.1-2.9,3.4-1.5,10.4,11,41.6,42.7,86.5,75.5Z"/>
        <path class="cls-3" d="M35.6,245.5c16.3,16.6,36.9,36.5,59.9,52.7,82.7,58,160.5,63.7,160.5,63.7,0,0-71.8-28.7-136.6-75.9-44.9-32.8-76.1-64.5-86.5-75.5-1.3-1.4-3.6-.3-3.4,1.5.6,6.7,2.1,19,6.1,33.5h0Z"/>
        <path class="cls-1" d="M189.1,384.2c41-4.5,66.9-22.3,66.9-22.3,0,0-18.3,56.8-59.4,61.3-33,3.6-66.9-26.4-78.8-38.2-1.4-1.4-.2-3.7,1.8-3.4,11.8,2.2,38.9,6,69.5,2.6h0Z"/>
        <path class="cls-3" d="M219,378.2c-7.7,15.2-22,36.4-43.6,43.1,7,1.8,14.1,2.6,21.2,1.8,41-4.5,59.4-61.3,59.4-61.3,0,0-13.7,9.4-37,16.3Z"/>
        <path class="cls-1" d="M292.9,143.8c0,98.2-36.9,218.1-36.9,218.1,0,0-36.9-119.9-36.9-218.1S247.4,17,254.4,8.2c.8-1,2.3-1,3.1,0,7,8.8,35.4,49.5,35.4,135.6h0Z"/>
        <path class="cls-3" d="M257.6,8.2c-.8-1-2.3-1-3.1,0-2.5,3.1-7.7,10.4-13.4,22.3,10.2,21.4,21.9,58,21.9,113.3s-11.7,117.4-21.9,161.2c7.9,34,15,56.9,15,56.9,0,0,36.9-119.9,36.9-218.1,0-86-28.4-126.8-35.4-135.6Z"/>
        <path class="cls-2" d="M484.4,203.2c-3.7-1.6-8-.8-10.8,2.2-11,11.7-41.5,42.5-85.5,74.6-16.3,11.9-33,22.6-49,31.9,74.8-69,86.9-169.7,77.3-228-.6-4.1-3.7-7.3-7.8-8-4.1-.7-8.1,1.3-10,4.9-12.9,26-91.7,165.1-118.1,216.4,23.6-94.9,33.3-232.4-17.2-293.6-3.6-4.7-11.3-4.7-14.8,0-3.9,4.9-14,19-22.5,43.8-1.4,3.9.7,8.2,4.6,9.5,3.9,1.4,8.2-.7,9.5-4.6,5.5-15.9,11.5-26.8,15.8-33.3,51.8,73.9,22.2,237.1,0,315.2-14.5-53-40.3-173.4-24.4-248.6.8-4.1-1.9-8-6-8.7-4.1-.8-8,1.9-8.7,6-13.1,67,.9,153.5,14.6,214.4-26.4-51.2-105.2-190.5-118.1-216.4-1.9-3.6-6-5.6-10-4.9-4.1.7-7.2,3.9-7.8,8-9.6,58.5,2.8,159.3,77.3,228-16-9.4-32.7-20.1-49-31.9-44-32.1-74.4-62.8-85.5-74.6-2.8-2.9-7.1-3.8-10.8-2.2-3.7,1.6-5.9,5.5-5.6,9.5,8.4,99.9,81,156.2,194.5,158.4-8.2,2.4-17.7,4.5-28.2,5.7-30.2,3.3-57.2-.7-67.4-2.5-4.1-.8-8.2,1.2-10.1,4.9-1.9,3.7-1.2,8.2,1.7,11.1,12.8,12.6,44.9,40.7,78.6,40.7,2.1,0,4.2-.1,6.4-.3,22.6-2.5,38.8-18.4,49.4-34-.9,45.6,9.6,103.2,41.5,114.7,3.7,1.6,8.2-.1,9.8-4,1.6-3.8-.2-8.2-4-9.8-27.4-11.6-32.9-66.7-32.3-106,10.5,17.1,27.7,36.3,52.7,39,2.1.2,4.3.3,6.4.3,33.7,0,65.8-28,78.6-40.7,3-2.9,3.7-7.4,1.7-11.1-1.9-3.7-6-5.7-10.1-4.9-10.2,1.9-37.2,5.8-67.4,2.5-10.5-1.2-20-3.2-28.3-5.7,28.5-.7,68.1-5.4,105.5-22.8,3.8-1.7,5.4-6.2,3.6-10-1.7-3.8-6.2-5.4-10-3.6-38.3,17.8-79.9,21.4-107.2,21.4,27.3-12.9,69.9-35.1,109.5-64,34-24.8,60.2-48.9,75.8-64.4-4.5,24.1-16.7,63.8-50.1,90.3-3.2,2.6-3.8,7.3-1.2,10.5,2.6,3.3,7.3,3.8,10.5,1.2,47.8-37.8,56.5-99.1,58-117,.3-4-1.9-7.8-5.6-9.5h0ZM340.6,217.9c28.3-50.3,50.2-90.6,62.8-114.2,8.8,100.5-45.7,190.3-130,240.1,13.3-26.2,37.7-73.6,67.1-125.9h0ZM137.7,242.2c-29.5-52.4-31.1-108.1-29.1-138.6,24.5,46.1,108.1,194.1,130,240.1-26.2-16-71.5-49.2-100.9-101.5h0ZM39.2,227.6c15.6,15.5,41.8,39.6,75.8,64.4,39.7,28.9,82.3,51.1,109.6,64.1-87.7,0-170-32.9-185.4-128.5h0ZM195.8,415.7c-21.6,2.4-44.5-12.2-59.4-24.1,14.3,1.5,33.1,2.3,53.5,0,21.1-2.3,38.3-8,50.4-13.2-8.4,15.4-23.2,34.9-44.5,37.2ZM375.5,391.6c-14.8,11.9-37.8,26.5-59.4,24.1-21.4-2.3-36.1-21.8-44.5-37.2,12.1,5.2,29.4,10.9,50.4,13.2,20.4,2.2,39.2,1.4,53.5,0Z"/>
      </g>
    </g>
  </g>
</svg>