<?xml version="1.0" encoding="UTF-8"?>
<svg xmlns="http://www.w3.org/2000/svg" version="1.1" viewBox="0 0 512 512">
  <defs>
    <style>
      .cls-1 {
        fill: #c1e9af;
      }

      .cls-2 {
        fill: #fedba6;
      }

      .cls-3 {
        fill: #7acaa6;
      }

      .cls-4 {
        fill: #fdb97e;
      }

      .cls-5 {
        fill: #fea95c;
      }

      .cls-6 {
        fill: #efe2dd;
      }

      .cls-7 {
        fill: #57be92;
      }

      .cls-8 {
        fill: #f3eae6;
      }

      .cls-9 {
        fill: #0c2149;
      }
    </style>
  </defs>
  <!-- Generator: Adobe Illustrator 28.7.1, SVG Export Plug-In . SVG Version: 1.2.0 Build 142)  -->
  <g>
    <g id="Layer_1">
      <g>
        <path class="cls-8" d="M384,504.5H34c-2.2,0-4-1.8-4-4V11.5c0-2.2,1.8-4,4-4h350c2.2,0,4,1.8,4,4v489c0,2.2-1.8,4-4,4Z"/>
        <path class="cls-6" d="M384,7.5h-30c2.2,0,4,1.8,4,4v489c0,2.2-1.8,4-4,4h30c2.2,0,4-1.8,4-4V11.5c0-2.2-1.8-4-4-4Z"/>
        <path class="cls-4" d="M388,50H30V11.5c0-2.2,1.8-4,4-4h350c2.2,0,4,1.8,4,4v38.5Z"/>
        <path class="cls-5" d="M384,7.5h-30c2.2,0,4,1.8,4,4v38.5h30V11.5c0-2.2-1.8-4-4-4Z"/>
        <path class="cls-1" d="M350.2,487.7l-35.5-12.7c-4.2-1.5-6.4-6.2-4.9-10.4l40.8-113.6,50.7,18.2-40.8,113.6c-1.5,4.2-6.2,6.4-10.4,4.9h0Z"/>
        <path class="cls-1" d="M425.7,487.7l35.5-12.7c4.2-1.5,6.4-6.2,4.9-10.4l-40.8-113.6-50.7,18.2,40.8,113.6c1.5,4.2,6.2,6.4,10.4,4.9h0Z"/>
        <path class="cls-2" d="M482,342.8c0,12-13.4,21.2-17.7,31.6-4.5,10.8-1.7,26.7-9.8,34.9s-24.1,5.4-34.9,9.8c-10.4,4.3-19.6,17.7-31.6,17.7s-21.2-13.4-31.6-17.7c-10.8-4.5-26.7-1.7-34.9-9.8s-5.4-24.1-9.8-34.9c-4.3-10.4-17.7-19.6-17.7-31.6s13.4-21.2,17.7-31.6c4.5-10.8,1.7-26.7,9.8-34.9s24.1-5.4,34.9-9.8c10.4-4.3,19.6-17.7,31.6-17.7s21.2,13.4,31.6,17.7c10.8,4.5,26.7,1.7,34.9,9.8s5.4,24.1,9.8,34.9c4.3,10.4,17.7,19.6,17.7,31.6h0Z"/>
        <path class="cls-7" d="M252.5,188.6c-22,39.3-38.2,72.5-38.2,72.5,0,0,39.1-12.6,61.2-51.8,18.6-33.2,15.3-74,13.8-84.2-.1-.9-1.4-1.2-1.8-.3-4,7.6-16.9,31.6-34.9,63.8h0Z"/>
        <path class="cls-7" d="M281.2,223.9c-31.7,23.2-66.9,37.3-66.9,37.3,0,0,42,12.5,76.2-7,29-16.5,33.9-56.7,34.8-66.6,0-.9-1.1-1.4-1.7-.8-5.1,5.4-20.4,21-42.4,37.1Z"/>
        <g>
          <path class="cls-3" d="M176,188.6c22,39.3,38.2,72.5,38.2,72.5,0,0-39.1-12.6-61.2-51.8-18.6-33.2-15.3-74-13.8-84.2.1-.9,1.4-1.2,1.8-.3,4,7.6,16.9,31.6,34.9,63.8Z"/>
          <path class="cls-3" d="M147.4,223.9c31.7,23.2,66.9,37.3,66.9,37.3,0,0-42,12.5-76.2-7-29-16.5-33.9-56.7-34.8-66.6,0-.9,1.1-1.4,1.7-.8,5.1,5.4,20.4,21,42.4,37.1h0Z"/>
          <path class="cls-3" d="M232.4,154c0,48.2-18.1,107.1-18.1,107.1,0,0-18.1-58.9-18.1-107.1s13.9-62.3,17.3-66.6c.4-.5,1.1-.5,1.5,0,3.4,4.3,17.3,24.3,17.3,66.6h0Z"/>
        </g>
        <g>
          <path class="cls-9" d="M468.7,389.9c.6-4.8,1.1-9.2,2.5-12.6,1.3-3.1,4-6.5,6.8-10.1,15.2-17.7,15.1-31,0-48.7-2.9-3.6-5.6-7-6.8-10.1-1.4-3.4-1.9-7.9-2.5-12.6-1-8.4-2.2-18-8.9-24.7-6.7-6.7-16.3-7.9-24.7-8.9-4.8-.6-9.2-1.1-12.6-2.5-8.8-4.2-16.7-14.1-27-17.1V11.5C395.5,5.2,390.4,0,384,0h-49.3c-9.9.3-9.9,14.7,0,15h45.8v27.5H37.5V15h261.2c9.9-.3,9.9-14.7,0-15H34C27.7,0,22.5,5.2,22.5,11.5v403.6c.3,9.9,14.7,9.9,15,0V57.5h343v185c-10.3,3-18.2,12.9-27,17.1-3.4,1.4-7.9,1.9-12.6,2.5-8.4,1-18,2.2-24.7,8.9-10.1,9.9-7.3,25.7-11.5,37.3-1.3,3.1-4,6.5-6.8,10.1-15.2,17.7-15.1,31,0,48.7,2.9,3.6,5.6,7,6.8,10.1,1.4,3.4,1.9,7.9,2.5,12.6,1,8.4,2.2,18,8.9,24.7.9.9,1.8,1.6,2.7,2.3l-16.2,45.1c-3,7.8,1.5,17.3,9.4,20l35.5,12.7c3.9,1.4,8.2,1.2,11.9-.6,3.8-1.8,6.6-4.9,8-8.9l12.9-35.9v47.6H37.5v-46.1c-.3-9.9-14.7-9.9-15,0v49.6c0,6.3,5.2,11.5,11.5,11.5h350c6.3,0,11.5-5.2,11.5-11.5v-50.6l12.7,35.4c1.4,3.9,4.3,7.1,8,8.9,3.8,1.8,8,2,11.9.6l35.5-12.7c3.9-1.4,7.1-4.3,8.9-8,1.8-3.8,2-8,.6-11.9l-16.2-45c1-.7,2-1.5,2.9-2.4,6.7-6.7,7.9-16.3,8.9-24.7h0ZM353.5,480.3c0,0,0,.2-.3.4-.2.1-.4,0-.5,0l-35.5-12.7c0,0-.2,0-.4-.3-.1-.2,0-.4,0-.5l16.1-44.8c2.7.5,5.4.8,8,1.2,4.8.6,9.2,1.1,12.6,2.5,3.1,1.3,6.5,4,10.1,6.8,1.7,1.4,3.5,2.8,5.4,4.1l-15.5,43.3ZM459,467.1c0,0,0,.2,0,.5s-.3.3-.4.3l-35.5,12.7c0,0-.2,0-.5,0-.2-.1-.3-.3-.3-.4l-15.5-43.2c1.9-1.4,3.7-2.8,5.5-4.2,3.6-2.9,7-5.6,10.1-6.8,3.4-1.4,7.9-1.9,12.6-2.5,2.5-.3,5.2-.6,7.8-1.1l16.1,44.7ZM453.8,388.1c-.8,6.6-1.6,12.9-4.6,15.9-3.1,3.1-9.3,3.8-15.9,4.6-5.5.7-11.3,1.4-16.5,3.6-5,2.1-9.4,5.6-13.7,8.9-13.2,10.8-16.9,10.8-30.1,0-4.3-3.4-8.7-6.8-13.7-8.9-5.2-2.2-11-2.9-16.5-3.6-6.6-.8-12.9-1.6-15.9-4.6s-3.8-9.3-4.6-15.9c-.7-5.5-1.4-11.3-3.6-16.5-2.1-5-5.6-9.4-8.9-13.7-10.8-13.2-10.8-16.9,0-30.1,3.4-4.3,6.8-8.7,8.9-13.7,2.2-5.2,2.9-11,3.6-16.5,1.8-16.7,3.9-18.7,20.6-20.6,5.5-.7,11.3-1.4,16.5-3.6,5-2.1,9.4-5.6,13.7-8.9,13.2-10.8,16.9-10.8,30.1,0,4.3,3.4,8.7,6.8,13.7,8.9,5.2,2.2,11,2.9,16.5,3.6,6.6.8,12.9,1.6,15.9,4.6s3.8,9.3,4.6,15.9c.7,5.5,1.4,11.3,3.6,16.5,2.1,5,5.6,9.4,8.9,13.7,10.8,13.2,10.8,16.9,0,30.1-3.4,4.3-6.8,8.7-8.9,13.7-2.2,5.2-2.9,11-3.6,16.5Z"/>
          <path class="cls-9" d="M110.4,181.7c-2.5-2.6-6.3-3.4-9.6-1.9-3.3,1.5-5.3,4.9-5,8.5,1.1,12.5,7,54.5,38.5,72.5,23.4,14.4,60,13.7,79.9,8.2,4.7,1.2,16.3,3.7,30.9,3.7,61,.5,83.9-41.3,87.6-84.4.3-3.6-1.7-7-5-8.5-3.3-1.5-7.2-.7-9.6,1.9-5,5.3-18.1,18.6-37.1,33,21.9-36.4,16.6-86,15.6-90.6-.5-3.6-3.3-6.5-6.9-7.1-3.6-.6-7.2,1.1-8.9,4.4-2.2,4.8-32.2,58.9-45.8,83.5,9.2-47,5.1-98.9-14.2-122-1.6-2-4-3.2-6.6-3.2h0c-2.6,0-5,1.2-6.6,3.2-19.3,23.1-23.3,75.3-14.2,122-13.6-24.7-43.4-78.5-45.8-83.5-1.7-3.3-5.3-5-8.9-4.4-3.6.6-6.4,3.5-6.9,7.1-1,4.5-6.3,54.2,15.6,90.6-19-14.4-32.1-27.7-37.1-33h0ZM314.4,206.3c-9.1,38.3-37.4,52.8-74.2,51.1,12.9-6.5,29.5-15.9,45.4-27.5,11.6-8.5,21.3-16.8,28.8-23.6ZM259.1,192.3c9.6-17.1,17.7-31.9,23.8-43.1-.2,39.4-18.2,75.3-51.9,95.4,6.8-13.3,16.7-32.1,28-52.3ZM214.3,100.4c17.7,31.8,9.2,95.1,0,131.2-9.2-36.2-17.7-99.4,0-131.2ZM145.7,149.1c6.1,11.2,14.2,26.1,23.8,43.1,11.3,20.2,21.2,39,28,52.3-33.7-20.1-51.7-56.1-51.9-95.4ZM188.4,257.5c-13.7.6-31.1-1-46.7-9.8-16-9.1-23.8-26.9-27.6-41.3,17.9,17.5,52.9,41.2,74.3,51.2Z"/>
          <path class="cls-9" d="M78.6,309.3c0,4.1,3.4,7.5,7.5,7.5h100.9c9.9-.3,9.9-14.7,0-15h-100.9c-4.1,0-7.5,3.4-7.5,7.5Z"/>
          <path class="cls-9" d="M86.1,373.7h153.9c9.9-.3,9.9-14.7,0-15H86.1c-9.9.3-9.9,14.7,0,15Z"/>
          <path class="cls-9" d="M86.1,402.7h153.9c9.9-.3,9.9-14.7,0-15H86.1c-9.9.3-9.9,14.7,0,15Z"/>
          <path class="cls-9" d="M86.1,431.8h153.9c9.9-.3,9.9-14.7,0-15H86.1c-9.9.3-9.9,14.7,0,15Z"/>
          <path class="cls-9" d="M86.1,460.9h48c9.9-.3,9.9-14.7,0-15h-48c-9.9.3-9.9,14.7,0,15Z"/>
        </g>
      </g>
    </g>
  </g>
</svg>