<svg width="448" xmlns="http://www.w3.org/2000/svg" height="512" fill="none"><g data-testid="check-icon"><rect rx="0" ry="0" x="65" y="108" width="318" height="297" style="fill: rgb(82, 182, 139); fill-opacity: 1;" class="fills" data-testid="Rectangle"/><g data-testid="square-check-solid (1)" style="fill: rgb(0, 0, 0);"><path d="M64 32C28.7 32 0 60.7 0 96v320c0 35.3 28.7 64 64 64h320c35.3 0 64-28.7 64-64V96c0-35.3-28.7-64-64-64H64Zm273 177L209 337c-9.4 9.4-24.6 9.4-33.9 0l-64-64c-9.4-9.4-9.4-24.6 0-33.9 9.4-9.3 24.6-9.4 33.9 0l47 47L303 175c9.4-9.4 24.6-9.4 33.9 0 9.3 9.4 9.4 24.6 0 33.9Z" style="fill: rgb(12, 33, 74); fill-opacity: 1;" class="fills" data-testid="svg-path"/></g></g></svg>