<svg width="576" xmlns="http://www.w3.org/2000/svg" height="512" fill="none"><g data-testid="credit-card-front-solid (1)" style="fill: rgb(0, 0, 0);"><path d="M0 96c0-35.3 28.7-64 64-64h448c35.3 0 64 28.7 64 64v320c0 35.3-28.7 64-64 64H64c-35.3 0-64-28.7-64-64V96Zm112 192c-8.8 0-16 7.2-16 16s7.2 16 16 16h352c8.8 0 16-7.2 16-16s-7.2-16-16-16H112Zm-16 80c0 8.8 7.2 16 16 16h64c8.8 0 16-7.2 16-16s-7.2-16-16-16h-64c-8.8 0-16 7.2-16 16Zm128 0c0 8.8 7.2 16 16 16h128c8.8 0 16-7.2 16-16s-7.2-16-16-16H240c-8.8 0-16 7.2-16 16ZM408 96c-13.3 0-24 10.7-24 24v48c0 13.3 10.7 24 24 24h80c13.3 0 24-10.7 24-24v-48c0-13.3-10.7-24-24-24h-80Z" style="fill: rgb(82, 182, 139); fill-opacity: 1;" class="fills" data-testid="svg-path"/></g></svg>