<?xml version="1.0" encoding="UTF-8"?>
<svg xmlns="http://www.w3.org/2000/svg" version="1.1" viewBox="0 0 512 512">
  <defs>
    <style>
      .cls-1 {
        fill: #918291;
      }

      .cls-2 {
        fill: #fedba6;
      }

      .cls-3 {
        fill: #7acaa6;
      }

      .cls-4 {
        fill: #6bd9e7;
      }

      .cls-5 {
        fill: #a79ba7;
      }

      .cls-6 {
        fill: #57be92;
      }

      .cls-7 {
        fill: #a6e7f0;
      }

      .cls-8 {
        fill: #d4f2f6;
      }

      .cls-9 {
        fill: #fece85;
      }

      .cls-10 {
        fill: #0c2149;
      }
    </style>
  </defs>
  <!-- Generator: Adobe Illustrator 28.7.1, SVG Export Plug-In . SVG Version: 1.2.0 Build 142)  -->
  <g>
    <g id="Layer_1">
      <g>
        <path class="cls-8" d="M385,504.5H127c-16.6,0-30-13.4-30-30V152.5c0-16.6,13.4-30,30-30h258c16.6,0,30,13.4,30,30v322c0,16.6-13.4,30-30,30Z"/>
        <path class="cls-7" d="M385,122.5h-30c16.6,0,30,13.4,30,30v322c0,16.6-13.4,30-30,30h30c16.6,0,30-13.4,30-30V152.5c0-16.6-13.4-30-30-30Z"/>
        <path class="cls-5" d="M372,87.5h-232c-3.3,0-6-2.7-6-6V13.5c0-3.3,2.7-6,6-6h232c3.3,0,6,2.7,6,6v68c0,3.3-2.7,6-6,6Z"/>
        <path class="cls-1" d="M372,7.5h-30c3.3,0,6,2.7,6,6v68c0,3.3-2.7,6-6,6h30c3.3,0,6-2.7,6-6V13.5c0-3.3-2.7-6-6-6Z"/>
        <path class="cls-7" d="M153.3,87.5h205.3v35h-205.3v-35Z"/>
        <path class="cls-4" d="M328.7,87.5h30v35h-30v-35Z"/>
        <path class="cls-2" d="M97,184.7h318v252H97v-252Z"/>
        <path class="cls-9" d="M385,184.7h30v252h-30v-252Z"/>
        <path class="cls-6" d="M294.2,319.5c-22,39.3-38.2,72.5-38.2,72.5,0,0,39.1-12.6,61.2-51.8,18.6-33.2,15.3-74,13.8-84.2-.1-.9-1.4-1.2-1.8-.3-4,7.6-16.9,31.6-34.9,63.8Z"/>
        <path class="cls-6" d="M322.9,354.7c-31.7,23.2-66.9,37.3-66.9,37.3,0,0,42,12.5,76.2-7,29-16.5,33.9-56.7,34.8-66.6,0-.9-1.1-1.4-1.7-.8-5.1,5.4-20.4,21-42.4,37.1Z"/>
        <g>
          <path class="cls-3" d="M217.8,319.5c22,39.3,38.2,72.5,38.2,72.5,0,0-39.1-12.6-61.2-51.8-18.6-33.2-15.3-74-13.8-84.2.1-.9,1.4-1.2,1.8-.3,4,7.6,16.9,31.6,34.9,63.8Z"/>
          <path class="cls-3" d="M189.1,354.7c31.7,23.2,66.9,37.3,66.9,37.3,0,0-42,12.5-76.2-7-29-16.5-33.9-56.7-34.8-66.6,0-.9,1.1-1.4,1.7-.8,5.1,5.4,20.4,21,42.4,37.1Z"/>
          <path class="cls-3" d="M274.1,284.9c0,48.2-18.1,107.1-18.1,107.1,0,0-18.1-58.9-18.1-107.1s13.9-62.3,17.3-66.6c.4-.5,1.1-.5,1.5,0,3.4,4.3,17.3,24.3,17.3,66.6Z"/>
        </g>
        <g>
          <path class="cls-10" d="M369.5,310.6c-3.3-1.5-7.2-.7-9.6,1.9-5,5.3-18.1,18.6-37.1,33,21.9-36.4,16.6-86,15.6-90.6-.5-3.6-3.3-6.5-6.9-7.1-3.6-.6-7.2,1.1-8.9,4.4-3.6,6.7-16.6,31.1-34.8,63.6-3.8,6.8-7.5,13.5-10.9,19.8,9.2-47,5.1-98.9-14.2-122-3.2-4.2-10.1-4.2-13.2,0-19.3,23.1-23.3,75.3-14.2,122-3.4-6.3-7.1-13-10.9-19.8-18.2-32.5-31.3-56.9-34.8-63.6-1.7-3.3-5.3-5-8.9-4.4-3.6.6-6.4,3.5-6.9,7.1-1,4.5-6.3,54.2,15.6,90.6-19-14.4-32.1-27.7-37.1-33-2.5-2.6-6.3-3.4-9.6-1.9-3.3,1.5-5.3,4.9-5,8.5,1.1,12.5,7,54.5,38.5,72.5,16.4,9.3,34.2,11.9,49,11.9s26.2-2.5,30.9-3.7c20,5.5,56.4,6.1,79.9-8.2,31.6-18,37.5-60,38.5-72.5.3-3.6-1.7-7-5-8.5h0ZM300.8,323.1c9.6-17,17.7-31.9,23.8-43.1-.4,15.9-3.4,37.6-14,56.5-10.7,19.1-25.9,31.5-37.9,38.9,6.8-13.3,16.7-32.1,28-52.3h0ZM256,231.3c17.7,31.8,9.2,95.1,0,131.2-9.2-36.2-17.7-99.4,0-131.2h0ZM187.4,280c13,24.1,40.3,72.2,51.9,95.4-12-7.5-27.2-19.9-37.9-38.9-10.6-18.9-13.5-40.5-14-56.5ZM183.5,378.5c-16-9.1-23.8-26.9-27.6-41.3,17.9,17.5,52.9,41.2,74.3,51.2-13.7.6-31.1-1-46.7-9.8ZM328.5,378.5c-15.4,8.8-32.9,10.4-46.6,9.8,12.9-6.5,29.5-15.9,45.4-27.5,11.6-8.5,21.3-16.8,28.8-23.6-3.8,14.5-11.6,32.2-27.6,41.3Z"/>
          <path class="cls-10" d="M385,115h-18.8v-20h5.8c7.4,0,13.5-6.1,13.5-13.5V13.5c0-7.4-6.1-13.5-13.5-13.5h-232c-7.4,0-13.5,6.1-13.5,13.5v10.5c.3,9.9,14.7,9.9,15,0v-9h31.9v65h-31.9v-20c-.3-9.9-14.7-9.9-15,0v21.5c0,7.4,6.1,13.5,13.5,13.5h5.8v20h-18.8c-20.7,0-37.5,16.8-37.5,37.5v322c0,20.7,16.8,37.5,37.5,37.5h199.7c9.9-.3,9.9-14.7,0-15H127c-12.4,0-22.5-10.1-22.5-22.5v-30.3h303v30.3c0,12.4-10.1,22.5-22.5,22.5h-22.7c-9.9.3-9.9,14.7,0,15h22.7c20.7,0,37.5-16.8,37.5-37.5V152.5c0-20.7-16.8-37.5-37.5-37.5ZM370.5,80h-31.9V15h31.9v65ZM238.5,80V15h35.1v65h-35.1ZM288.5,15h35.1v65h-35.1V15ZM188.4,15h35.1v65h-35.1V15ZM160.8,95h190.3v20h-190.3v-20ZM127,130h258c12.4,0,22.5,10.1,22.5,22.5v24.7H104.5v-24.7c0-12.4,10.1-22.5,22.5-22.5ZM104.5,429.2v-237h303v237H104.5Z"/>
        </g>
      </g>
    </g>
  </g>
</svg>