<?xml version="1.0" encoding="UTF-8"?>
<svg xmlns="http://www.w3.org/2000/svg" version="1.1" viewBox="0 0 512 512">
  <defs>
    <style>
      .cls-1 {
        fill: #c1e9af;
      }

      .cls-2 {
        fill: #7acaa6;
      }

      .cls-3 {
        fill: #ade194;
      }

      .cls-4 {
        fill: #6bd9e7;
      }

      .cls-5 {
        fill: #57be92;
      }

      .cls-6 {
        fill: #a6e7f0;
      }

      .cls-7 {
        fill: #d4f2f6;
      }

      .cls-8 {
        fill: #0c2149;
      }
    </style>
  </defs>
  <!-- Generator: Adobe Illustrator 28.7.1, SVG Export Plug-In . SVG Version: 1.2.0 Build 142)  -->
  <g>
    <g id="Layer_1">
      <g>
        <path class="cls-6" d="M215.5,129.1h-96c-8.3,0-15-6.7-15-15s6.7-15,15-15h96c8.3,0,15,6.7,15,15s-6.7,15-15,15Z"/>
        <path class="cls-4" d="M215.5,99.1h-30c8.3,0,15,6.7,15,15s-6.7,15-15,15h30c8.3,0,15-6.7,15-15s-6.7-15-15-15Z"/>
        <path class="cls-7" d="M327.5,344.5c0,87.6-70.4,158.8-157.8,160-88.1,1.2-162-71.5-162.2-159.6-.1-63.9,37.2-119.1,91.3-144.9,17.6-8.4,28.7-26.3,28.7-45.8v-25.1h80v25.1c0,19.5,11.1,37.4,28.7,45.8,54,25.7,91.3,80.8,91.3,144.5h0Z"/>
        <path class="cls-6" d="M236.2,200c-17.6-8.4-28.7-26.3-28.7-45.8v-25.1h-30v25.1c0,19.5,11.1,37.4,28.7,45.8,54,25.7,91.3,80.8,91.3,144.5s-63.6,151.6-144.8,159.3c5.6.5,11.3.8,17.1.7,87.3-1.2,157.8-72.4,157.8-160s-37.3-118.8-91.3-144.5h0Z"/>
        <path class="cls-2" d="M327.5,344.5c0,87.6-70.4,158.8-157.8,160-88.1,1.2-162-71.5-162.2-159.6,0-23.6,5-46,14.1-66.2h291.7c9.1,20.1,14.1,42.4,14.1,65.8Z"/>
        <path class="cls-5" d="M313.4,278.7h-30c9.1,20.1,14.1,42.4,14.1,65.8,0,83.3-63.6,151.6-144.8,159.3,5.6.5,11.3.8,17.1.7,87.3-1.2,157.8-72.4,157.8-160,0-23.5-5-45.8-14.1-65.8h0Z"/>
        <path class="cls-6" d="M489.5,215.5h-96c-8.3,0-15-6.7-15-15s6.7-15,15-15h96c8.3,0,15,6.7,15,15s-6.7,15-15,15Z"/>
        <path class="cls-4" d="M489.5,185.5h-30c8.3,0,15,6.7,15,15s-6.7,15-15,15h30c8.3,0,15-6.7,15-15s-6.7-15-15-15Z"/>
        <path class="cls-7" d="M481.5,422v-206.5h-80v206.5c0,22.1,17.9,40,40,40s40-17.9,40-40Z"/>
        <path class="cls-6" d="M451.5,215.5v206.5c0,16.8-10.3,31.1-25,37.1,4.6,1.9,9.7,2.9,15,2.9,22.1,0,40-17.9,40-40v-206.5h-30Z"/>
        <path class="cls-1" d="M401.5,333.8v88.2c0,22.1,17.9,40,40,40s40-17.9,40-40v-88.2h-80Z"/>
        <path class="cls-3" d="M451.5,333.8v88.2c0,16.8-10.3,31.1-25,37.1,4.6,1.9,9.7,2.9,15,2.9,22.1,0,40-17.9,40-40v-88.2h-30Z"/>
        <path class="cls-8" d="M489.5,178h-41V7.5c0-4.1-3.4-7.5-7.5-7.5H167.5c-4.1,0-7.5,3.4-7.5,7.5v84.1h-40.5c-29.8,1.1-29.8,43.9,0,45h.5v17.6c0,16.6-9.6,31.9-24.4,39C.7,237.1-30.6,363.1,34.6,445.7c2.5,3.3,7.2,3.9,10.5,1.4,3.3-2.5,3.9-7.2,1.4-10.5-33.2-42.3-40.7-101.5-19.8-150.4h281.6c42.3,96.7-33.1,210.9-138.7,210.8-36.4.5-71.9-12.4-100.2-36.4-3.2-2.7-7.9-2.3-10.6.9-2.7,3.2-2.3,7.9.9,10.6,31,26.3,70.1,40.5,110.1,40,44.3-.6,85.8-18.3,116.9-49.8,54.7-53.7,64-144.5,21.7-208.3-16.9-26.3-40.8-47.3-68.9-60.7-14.9-7.1-24.5-22.4-24.5-39v-17.6h.5c29.8-1.1,29.8-43.9,0-45h-40.5V15h258.5v163h-40c-29.8,1.1-29.8,43.9,0,45h.5v199c2.4,62.9,92.6,62.9,95,0v-155.7c-.3-9.9-14.7-9.9-15,0v60h-65v-103.4h65v8c.3,9.9,14.7,9.9,15,0v-8h.5c29.8-1.1,29.8-43.9,0-45h0ZM233,206.8c29.3,14,52.9,36.8,68,64.4H33.9c15.2-27.6,38.7-50.4,68.1-64.4,20-9.5,33-30.2,33-52.5v-17.6h65v17.6c0,22.4,13,43,33,52.5h0ZM223,114.1c0,4.1-3.4,7.5-7.5,7.5h-96c-9.9-.4-9.9-14.7,0-15h96c4.1,0,7.5,3.4,7.5,7.5ZM474,341.3v80.7c-1.6,43.1-63.4,43-65,0v-80.7h65ZM489.5,208h-96c-9.9-.4-9.9-14.6,0-15h96c9.9.4,9.9,14.6,0,15Z"/>
      </g>
    </g>
  </g>
</svg>