<?xml version="1.0" encoding="UTF-8"?>
<svg xmlns="http://www.w3.org/2000/svg" version="1.1" viewBox="0 0 512 512">
  <defs>
    <style>
      .cls-1 {
        fill: #fe646f;
      }

      .cls-2 {
        fill: #0c2149;
      }

      .cls-3 {
        fill: #fd4755;
      }
    </style>
  </defs>
  <!-- Generator: Adobe Illustrator 28.7.1, SVG Export Plug-In . SVG Version: 1.2.0 Build 142)  -->
  <g>
    <g id="Layer_1">
      <g id="Layer_1-2" data-name="Layer_1">
        <g>
          <path class="cls-1" d="M184.4,42.5c28.8,0,52.6,10.2,70.4,22.7.7.5,1.7.5,2.4,0,17.8-12.5,41.5-22.7,70.4-22.7,60.2,0,107.4,52.9,107.4,120.4s-21.1,126.8-162.6,200.6c-5.2,2.7-10.8,4.1-16.5,4.1s-11.3-1.3-16.5-4.1C98.1,289.6,77,206.1,77,162.9c0-67.5,47.2-120.4,107.4-120.4h0Z"/>
          <path class="cls-3" d="M327.6,42.5c-5.4,0-10.6.4-15.7,1,53.2,7.6,93.1,57.3,93.1,119.4s-21.1,126.8-162.6,200.6c-.5.3-1,.5-1.5.7,4.8,2.2,9.9,3.3,15,3.3s11.3-1.3,16.5-4.1c141.5-73.8,162.6-157.4,162.6-200.6,0-67.5-47.2-120.4-107.4-120.4h0Z"/>
          <g>
            <path class="cls-3" d="M294.3,202.5c-22,39.3-38.3,72.6-38.3,72.6,0,0,39.2-12.6,61.2-51.9,18.6-33.2,15.3-74,13.8-84.2-.1-.9-1.4-1.2-1.8-.3-4,7.6-16.9,31.6-34.9,63.8h0Z"/>
            <path class="cls-3" d="M322.9,237.8c-31.8,23.2-66.9,37.3-66.9,37.3,0,0,42,12.5,76.2-7,29-16.5,34-56.7,34.8-66.6,0-.9-1.1-1.4-1.7-.8-5.1,5.4-20.4,21-42.4,37.1h0Z"/>
            <path class="cls-3" d="M217.7,202.5c22,39.3,38.3,72.6,38.3,72.6,0,0-39.2-12.6-61.2-51.9-18.6-33.2-15.3-74-13.8-84.2.1-.9,1.4-1.2,1.8-.3,4,7.6,16.9,31.6,34.9,63.8h0Z"/>
            <path class="cls-3" d="M189.1,237.8c31.8,23.2,66.9,37.3,66.9,37.3,0,0-42,12.5-76.2-7-29-16.5-34-56.7-34.8-66.6,0-.9,1.1-1.4,1.7-.8,5.1,5.4,20.4,21,42.4,37.1h0Z"/>
            <path class="cls-3" d="M274.1,167.9c0,48.2-18.1,107.2-18.1,107.2,0,0-18.1-58.9-18.1-107.2s13.9-62.3,17.3-66.6c.4-.5,1.1-.5,1.5,0,3.4,4.3,17.3,24.3,17.3,66.6h.1Z"/>
          </g>
          <g>
            <path class="cls-2" d="M327.6,35c-31.4,0-55.9,11.5-71.6,21.9-38.2-27-102.3-32.6-143.1,5.2-3.1,2.7-3.4,7.5-.7,10.6,2.7,3.1,7.5,3.4,10.6.7,37.2-34.4,94.9-26.7,127.7-2.1,3.3,2.3,7.8,2.3,11.1,0,147.4-94.3,280.5,150.1,7.4,285.6-7.9,4.2-18,4.2-25.9,0C87.3,273.8,60.4,175.1,101.8,98.4c2.1-3.5,1-8.2-2.5-10.3s-8.2-1-10.3,2.5c-45.5,83.5-18.2,191.3,147.1,279.5,12.2,6.5,27.7,6.5,39.9,0,145-75.7,166.6-162.3,166.6-207.3,0-71.7-50.5-127.9-114.9-127.9h-.1Z"/>
            <path class="cls-2" d="M152.1,195.6c-2.5-2.6-6.3-3.4-9.6-1.9s-5.3,4.9-5,8.5c1.1,12.5,7,54.5,38.6,72.5,16.4,9.3,34.2,11.9,49,11.9s26.2-2.5,30.9-3.7c20,5.5,56.4,6.1,79.9-8.2,31.6-18,37.5-60,38.6-72.5.3-3.6-1.7-7-5-8.5s-7.2-.7-9.6,1.9c-5,5.3-18.1,18.6-37.1,33,21.9-36.4,16.6-86,15.6-90.6-1.1-8.1-12.1-10-15.9-2.8-3.6,6.7-16.6,31.1-34.8,63.7-3.8,6.8-7.5,13.5-10.9,19.8,9.2-47,5.1-98.9-14.2-122-3.2-4.2-10.1-4.2-13.2,0-19.3,23.1-23.3,75.3-14.2,122-3.4-6.3-7.1-13-10.9-19.8-18.3-32.5-31.3-56.9-34.8-63.7-1.7-3.3-5.3-5-8.9-4.4-3.6.6-6.4,3.5-6.9,7.1-1,4.5-6.3,54.2,15.6,90.6-19-14.4-32.1-27.7-37.1-33h-.1ZM356.2,220.2c-9.1,38.3-37.4,52.8-74.3,51.1,12.9-6.5,29.5-15.9,45.4-27.5,11.6-8.5,21.3-16.8,28.8-23.6h.1ZM300.8,206.2c9.6-17.1,17.7-31.9,23.8-43.1-.4,16-3.4,37.6-14,56.5-10.7,19.1-25.9,31.5-37.9,38.9,6.8-13.3,16.7-32.1,28-52.3h.1ZM256,114.3c17.7,31.8,9.2,95.2,0,131.2-9.2-36.2-17.7-99.4,0-131.2ZM187.4,163c13,24.1,40.3,72.2,51.9,95.4-12-7.5-27.2-19.9-37.9-38.9-10.6-18.9-13.5-40.6-14-56.5ZM230.1,271.4c-37,1.6-65.1-12.8-74.3-51.2,17.9,17.5,52.9,41.2,74.3,51.2Z"/>
            <path class="cls-2" d="M504.6,426h-48.4c-9.9.3-9.9,14.7,0,15h48.4c9.9-.3,9.9-14.7,0-15Z"/>
            <path class="cls-2" d="M419.3,426h-80.6l-18.6-20.4c-1.4-1.6-3.5-2.5-5.6-2.4-2.1,0-4.2,1-5.6,2.6l-45,51.8-48.9-64.6c-1.4-1.8-3.4-2.9-5.7-3-2.2,0-4.4.8-5.9,2.5l-30,33.4H7.4c-9.9.3-9.9,14.7,0,15h169.2c2.1,0,4.2-.9,5.6-2.5l26.2-29.2,49,64.8c1.4,1.8,3.5,2.9,5.7,3,2.3,0,4.4-.9,5.9-2.6l45.6-52.5,15.2,16.6c1.4,1.6,3.4,2.4,5.5,2.4h83.9c9.9-.3,9.9-14.7,0-15h0Z"/>
          </g>
        </g>
      </g>
    </g>
  </g>
</svg>