<?xml version="1.0" encoding="UTF-8"?>
<svg xmlns="http://www.w3.org/2000/svg" version="1.1" viewBox="0 0 512 512">
  <defs>
    <style>
      .cls-1 {
        fill: #918291;
      }

      .cls-2 {
        fill: #fedba6;
      }

      .cls-3 {
        fill: #7acaa6;
      }

      .cls-4 {
        fill: #a79ba7;
      }

      .cls-5 {
        fill: #57be92;
      }

      .cls-6 {
        fill: #0c2149;
      }
    </style>
  </defs>
  <!-- Generator: Adobe Illustrator 28.7.1, SVG Export Plug-In . SVG Version: 1.2.0 Build 142)  -->
  <g>
    <g id="Layer_1">
      <g>
        <path class="cls-1" d="M241,210h30v259.3h-30V210Z"/>
        <g>
          <path class="cls-2" d="M331.8,504.5h-151.7c-2.4,0-3.9-2.7-2.5-4.8l3.7-5.4c10.6-15.6,28.2-25,47.1-25h55.2c18.9,0,36.5,9.4,47.1,25l3.7,5.4c1.4,2,0,4.8-2.5,4.8h0Z"/>
          <path class="cls-2" d="M194.3,210h46.7v56.7l-46.7-56.7Z"/>
          <path class="cls-2" d="M317.7,210h-46.7v56.7l46.7-56.7Z"/>
        </g>
        <path class="cls-5" d="M294.2,109c-22,39.3-38.2,72.5-38.2,72.5,0,0,39.1-12.6,61.2-51.8,18.6-33.2,15.3-74,13.8-84.2-.1-.9-1.4-1.2-1.8-.3-4,7.6-16.9,31.6-34.9,63.8Z"/>
        <path class="cls-5" d="M322.9,144.3c-31.7,23.2-66.9,37.3-66.9,37.3,0,0,42,12.4,76.2-7,29-16.5,33.9-56.7,34.8-66.6,0-.9-1.1-1.4-1.7-.8-5.1,5.4-20.4,21-42.4,37.1Z"/>
        <path class="cls-3" d="M217.8,109c22,39.3,38.2,72.5,38.2,72.5,0,0-39.1-12.6-61.2-51.8-18.6-33.2-15.3-74-13.8-84.2.1-.9,1.4-1.2,1.8-.3,4,7.6,16.9,31.6,34.9,63.8h0Z"/>
        <path class="cls-3" d="M189.1,144.3c31.7,23.2,66.9,37.3,66.9,37.3,0,0-42,12.4-76.2-7-29-16.5-33.9-56.7-34.8-66.6,0-.9,1.1-1.4,1.7-.8,5.1,5.4,20.4,21,42.4,37.1h0Z"/>
        <path class="cls-3" d="M274.1,74.4c0,48.2-18.1,107.1-18.1,107.1,0,0-18.1-58.9-18.1-107.1s13.9-62.3,17.3-66.6c.4-.5,1.1-.5,1.5,0,3.4,4.3,17.3,24.3,17.3,66.6Z"/>
        <path class="cls-4" d="M429,210H83c-8.3,0-15-6.7-15-15s6.7-15,15-15h346c8.3,0,15,6.7,15,15s-6.7,15-15,15Z"/>
        <path class="cls-2" d="M12.1,378.1h151.8c3.7,0,5.9,4.2,3.7,7.3-10.6,14.6-38.2,45.9-79.6,45.9s-69.1-31.4-79.6-45.9c-2.2-3,0-7.3,3.7-7.3Z"/>
        <path class="cls-2" d="M348.1,378.1h151.8c3.7,0,5.9,4.2,3.7,7.3-10.6,14.6-38.2,45.9-79.6,45.9s-69.1-31.4-79.6-45.9c-2.2-3,0-7.3,3.7-7.3Z"/>
        <path class="cls-6" d="M510.7,377.2c-2.1-4.1-6.2-6.6-10.8-6.6h-6.3l-57.2-154.3c23.6-8.6,18-43.3-7.4-43.7h-81.5c21.5-20.3,26.1-53.1,27-64,.3-3.6-1.7-7-5-8.4-3.3-1.4-7.1-.7-9.6,2-5,5.3-18.1,18.6-37.1,33,.3-.5.6-1.1,1-1.6,21.3-37.9,15.4-83.8,14.7-88.9-.5-3.7-3.3-6.6-6.9-7.2-3.6-.6-7.2,1.1-8.9,4.4-3.6,6.7-16.6,31.1-34.8,63.6-3.8,6.8-7.5,13.5-10.9,19.9,3.4-20.2,5.7-41.8,4.5-62.4-.3-4.1-3.8-7.3-7.9-7-4.1.3-7.3,3.8-7,7.9,1.9,28.9-4.7,64.3-10.3,88.3-9.2-36-17.7-99.4,0-131.2,1.4,2.9,3,6.4,4.4,10.8,1.3,3.9,5.6,6.1,9.5,4.7,3.9-1.3,6.1-5.6,4.7-9.5-4.5-13.4-9.9-21.1-12-23.7-3.2-4.2-10.1-4.2-13.2,0-19.3,23.1-23.3,75.3-14.2,122-3.4-6.3-7.1-13-10.9-19.8-18.2-32.5-31.3-56.9-34.8-63.6-1.7-3.3-5.3-5.1-9-4.4-3.6.6-6.4,3.5-6.9,7.1-.7,5.1-6.6,51,14.7,88.9.3.6.6,1.1.9,1.6-19-14.4-32.1-27.7-37.1-33-2.5-2.6-6.3-3.4-9.6-1.9-3.3,1.4-5.3,4.8-5,8.5.9,10.8,5.5,43.6,27,63.9h-81.5c-25.4.5-31,35.2-7.4,43.7l-57.2,154.3h-6.3c-9.7-.1-15.6,11.4-9.8,19.2,4,5.6,10.8,13.9,19.9,22.1,3.1,2.8,7.8,2.5,10.6-.6,2.8-3.1,2.5-7.8-.6-10.6-5.9-5.3-10.7-10.6-14.2-15h140.1c-18.2,24-57.3,50.3-98.7,32.5-3.8-1.6-8.2.2-9.8,4.1-1.6,3.8.2,8.2,4.1,9.8,53.4,22.8,101.6-14.8,120.1-42.1,5.8-7.8,0-19.3-9.8-19.2h-6.3l-56.7-153.1h89.9l42.7,51.9v192.5h-5.1c-21.4,0-41.3,10.6-53.3,28.3l-3.7,5.4c-4.8,6.8.4,16.6,8.7,16.5h151.7c8.3.1,13.5-9.7,8.7-16.5l-3.7-5.4c-12-17.7-31.9-28.3-53.3-28.3h-5.1v-192.5l42.7-51.9h89.9l-56.7,153.1h-6.3c-9.7-.1-15.6,11.4-9.8,19.2,46.2,65,125.5,64.8,171.4,0,2.7-3.7,3.1-8.5,1-12.6h0ZM356.2,126.7c-3.8,14.5-11.6,32.2-27.6,41.3-2.7,1.5-5.4,2.9-8.3,4-.3.1-.6.3-.9.5h-27.2c11-6,23.4-13.4,35.3-22.2,11.6-8.5,21.3-16.8,28.8-23.6h0ZM300.8,112.7c9.6-17,17.7-31.9,23.8-43.1-.4,15.9-3.4,37.6-14,56.5-10.8,19.2-26.1,31.6-37.9,39,6.8-13.3,16.7-32,28.1-52.3ZM187.4,69.6c6.1,11.3,14.2,26.1,23.8,43.1,11.3,20.2,21.1,38.8,28.1,52.3-11.9-7.4-27.2-19.8-37.9-39-10.6-18.9-13.5-40.5-13.9-56.5ZM191.8,172c-2.8-1.1-5.6-2.5-8.3-4-16-9.1-23.9-26.9-27.7-41.3,15.8,15.1,43.9,35.4,64.1,45.8h-27.2c-.3-.2-.6-.3-.9-.5ZM83,187.5h346c9.9.4,9.9,14.6,0,15H83c-9.9-.4-9.9-14.6,0-15h0ZM34.4,370.6l53.6-144.6,53.6,144.6H34.4ZM210.2,217.5h23.3v28.3l-23.3-28.3ZM323.4,497h-134.8c9.3-12.7,24-20.2,39.8-20.2h55.2c15.8,0,30.5,7.5,39.8,20.2ZM248.5,461.8v-244.3h15v244.3h-15ZM278.5,245.7v-28.3h23.3l-23.3,28.3ZM424,225.9l53.6,144.6h-107.2l53.6-144.6ZM424,423.8c-34.2,0-58.6-23.9-70-38.2h140.1c-11.5,14.3-35.8,38.2-70,38.2Z"/>
      </g>
    </g>
  </g>
</svg>