<?xml version="1.0" encoding="UTF-8"?>
<svg xmlns="http://www.w3.org/2000/svg" version="1.1" viewBox="0 0 512 512">
  <defs>
    <style>
      .cls-1 {
        fill: #918291;
      }

      .cls-2 {
        fill: #c1e9af;
      }

      .cls-3 {
        fill: #7acaa6;
      }

      .cls-4 {
        fill: #ade194;
      }

      .cls-5 {
        fill: #a79ba7;
      }

      .cls-6 {
        fill: #57be92;
      }

      .cls-7 {
        fill: #0c2149;
      }
    </style>
  </defs>
  <!-- Generator: Adobe Illustrator 28.7.1, SVG Export Plug-In . SVG Version: 1.2.0 Build 142)  -->
  <g>
    <g id="Layer_1">
      <g>
        <path class="cls-2" d="M454.8,207.2c0,159-159.1,272.9-193,295.4-3.8,2.5-8.8,2.5-12.6,0-33.9-22.5-193-136.4-193-295.4S145.4,7.9,255.5,7.9s199.3,89.2,199.3,199.3h0Z"/>
        <path class="cls-4" d="M255.5,7.9c-5,0-10,.2-15,.6,103.1,7.7,184.4,93.7,184.4,198.7s-138,257-184.4,289.5c3.4,2.4,6.4,4.4,8.7,5.9,3.8,2.5,8.8,2.5,12.6,0,33.9-22.5,193-136.4,193-295.4,0-110.1-89.2-199.3-199.3-199.3h0Z"/>
        <circle class="cls-5" cx="255.5" cy="211.3" r="149.9"/>
        <path class="cls-1" d="M255.5,61.5c-5.1,0-10.1.3-15,.7,75.7,7.5,134.9,71.4,134.9,149.1s-59.2,141.6-134.9,149.1c4.9.5,9.9.7,15,.7,82.8,0,149.9-67.1,149.9-149.9S338.3,61.5,255.5,61.5h0Z"/>
        <path class="cls-6" d="M293.7,214.8c-22,39.2-38.2,72.5-38.2,72.5,0,0,39.1-12.6,61.1-51.8,18.6-33.2,15.3-73.9,13.8-84.1-.1-.9-1.4-1.2-1.8-.3-4,7.6-16.8,31.6-34.9,63.7Z"/>
        <path class="cls-6" d="M322.4,250c-31.7,23.2-66.9,37.3-66.9,37.3,0,0,42,12.4,76.2-7,29-16.5,33.9-56.7,34.8-66.6,0-.9-1.1-1.4-1.7-.8-5.1,5.4-20.3,21-42.4,37h0Z"/>
        <g>
          <path class="cls-3" d="M217.3,214.8c22,39.2,38.2,72.5,38.2,72.5,0,0-39.1-12.6-61.1-51.8-18.6-33.2-15.3-73.9-13.8-84.1.1-.9,1.4-1.2,1.8-.3,4,7.6,16.8,31.6,34.9,63.7Z"/>
          <path class="cls-3" d="M188.6,250c31.7,23.2,66.9,37.3,66.9,37.3,0,0-42,12.4-76.2-7-29-16.5-33.9-56.7-34.8-66.6,0-.9,1-1.4,1.7-.8,5.1,5.4,20.3,21,42.4,37h0Z"/>
          <path class="cls-3" d="M273.6,180.2c0,48.2-18.1,107-18.1,107,0,0-18.1-58.9-18.1-107s13.9-62.2,17.3-66.5c.4-.5,1.1-.5,1.5,0,3.4,4.3,17.3,24.3,17.3,66.5Z"/>
        </g>
        <g>
          <path class="cls-7" d="M151.7,207.8c-2.5-2.6-6.3-3.4-9.6-1.9-3.3,1.5-5.3,4.9-5,8.5,1.1,12.5,7,54.5,38.5,72.4,16.4,9.3,34.2,11.9,49,11.9s26.2-2.5,30.9-3.7c20,5.5,56.4,6.1,79.9-8.2,31.6-18,37.5-60,38.5-72.4.3-3.6-1.7-7-5-8.5-3.3-1.5-7.2-.7-9.6,1.9-5,5.3-18.1,18.6-37,32.9.3-.5.6-1.1.9-1.6,21.3-37.9,15.4-83.8,14.7-88.9-.5-3.6-3.3-6.5-6.9-7.1-3.6-.6-7.2,1.1-8.9,4.4-3.8,7.6-31.9,58.3-45.7,83.4,9.2-47,5.1-98.8-14.1-121.9-3.2-4.2-10.1-4.2-13.2,0-19.2,23.1-23.3,75.2-14.1,121.9-13.9-25.2-41.9-75.7-45.7-83.4-1.7-3.3-5.3-5-8.9-4.4-3.6.6-6.4,3.5-6.9,7.1-.7,5.1-6.6,50.9,14.7,88.9.3.6.6,1.1.9,1.6-19-14.4-32.1-27.6-37-32.9h0ZM355.6,232.4c-9.1,38.3-37.3,52.7-74.2,51.1,12.9-6.5,29.5-15.9,45.4-27.5,11.6-8.5,21.3-16.8,28.8-23.6h0ZM300.3,218.4c9.6-17.1,17.7-31.8,23.8-43.1-.4,15.9-3.4,37.6-13.9,56.4-10.7,19-25.9,31.4-37.9,38.9,6.8-13.3,16.7-32,28-52.2ZM255.5,126.6c17.7,31.7,9.2,95.1,0,131.1-9.2-36.1-17.7-99.3,0-131.1ZM187,175.3c6.1,11.3,14.2,26,23.8,43.1,11.4,20.2,21.2,39,28.1,52.3-33.6-20-51.7-56.1-51.8-95.4h0ZM229.6,283.5c-36.9,1.6-65.1-12.9-74.2-51.1,7.5,6.9,17.2,15.2,28.8,23.6,15.9,11.6,32.5,21,45.4,27.5h0Z"/>
          <path class="cls-7" d="M417.2,78.2c-2.6-3.2-7.3-3.8-10.5-1.2-3.2,2.6-3.8,7.3-1.2,10.5,131.8,170.7-77.3,368.1-147.8,408.8-1.3.9-3,.9-4.3,0C-134.2,228.9,158.9-112.4,382.4,63.3c3.1,2.7,7.8,2.4,10.6-.7,2.7-3.1,2.4-7.8-.7-10.6C155.5-136.5-162.6,226.6,245.1,508.8c6.3,4.2,14.5,4.2,20.9,0,130.3-83.7,271.7-275.6,151.2-430.6Z"/>
          <path class="cls-7" d="M183,351c102.5,54.8,231.3-23.3,229.9-139.7,0-86.8-70.6-157.4-157.4-157.4-144.9,0-212.5,182-102.8,276.5,3.1,2.7,7.9,2.4,10.6-.8,2.7-3.1,2.4-7.9-.8-10.6-99.3-85.5-38.1-250.2,93-250.2,78.5,0,142.4,63.9,142.4,142.4,1.3,105.2-115.4,176.1-208,126.4-3.7-1.9-8.2-.5-10.1,3.2-1.9,3.7-.5,8.2,3.2,10.1h0Z"/>
        </g>
      </g>
    </g>
  </g>
</svg>