<?xml version="1.0" encoding="UTF-8"?>
<svg xmlns="http://www.w3.org/2000/svg" version="1.1" viewBox="0 0 512 512">
  <defs>
    <style>
      .cls-1 {
        fill: #918291;
      }

      .cls-2 {
        fill: #b6c4cf;
      }

      .cls-3 {
        fill: #fe646f;
      }

      .cls-4 {
        fill: #a79ba7;
      }

      .cls-5 {
        fill: #a6e7f0;
      }

      .cls-6 {
        fill: #c5d3dd;
      }

      .cls-7 {
        fill: #d4f2f6;
      }

      .cls-8 {
        fill: #0c2149;
      }
    </style>
  </defs>
  <!-- Generator: Adobe Illustrator 28.7.1, SVG Export Plug-In . SVG Version: 1.2.0 Build 142)  -->
  <g>
    <g id="Layer_1">
      <g>
        <path class="cls-6" d="M411.4,504.5H100.6c-9.4,0-17-7.6-17-17v-39.7c0-9.4,7.6-17,17-17h310.8c9.4,0,17,7.6,17,17v39.7c0,9.4-7.6,17-17,17Z"/>
        <path class="cls-2" d="M411.4,430.7h-30c9.4,0,17,7.6,17,17v39.7c0,9.4-7.6,17-17,17h30c9.4,0,17-7.6,17-17v-39.7c0-9.4-7.6-17-17-17Z"/>
        <path class="cls-6" d="M296,293.5h-73.4c-3.7,0-6.7-3-6.7-6.7V67.9c0-3.7,3-6.7,6.7-6.7h73.4c3.7,0,6.7,3,6.7,6.7v218.9c0,3.7-3,6.7-6.7,6.7Z"/>
        <path class="cls-2" d="M296,61.3h-30c3.7,0,6.7,3,6.7,6.7v218.9c0,3.7-3,6.7-6.7,6.7h30c3.7,0,6.7-3,6.7-6.7V67.9c0-3.7-3-6.7-6.7-6.7h0Z"/>
        <path class="cls-4" d="M239.4,7.5h40v53.8h-40V7.5Z"/>
        <path class="cls-4" d="M229.8,293.5h59.1v30h-59.1v-30Z"/>
        <path class="cls-1" d="M258.9,293.5h30v30h-30v-30Z"/>
        <path class="cls-7" d="M412.1,400.7H99.9c-17.2,0-33.6-7.6-44.7-20.7l-6.6-7.8c-3.5-4.1-.6-10.3,4.8-10.3h405.4c5.3,0,8.2,6.3,4.8,10.3l-6.6,7.8c-11.2,13.1-27.5,20.7-44.7,20.7h0Z"/>
        <path class="cls-5" d="M458.7,361.9h-30c5.3,0,8.2,6.3,4.8,10.3l-6.6,7.8c-11.2,13.1-27.5,20.7-44.7,20.7h30c17.2,0,33.6-7.6,44.7-20.7l6.6-7.8c3.5-4.1.6-10.3-4.8-10.3Z"/>
        <path class="cls-4" d="M120,400.7h272v30H120v-30Z"/>
        <path class="cls-1" d="M362,400.7h30v30h-30v-30Z"/>
        <path class="cls-3" d="M189.6,465.9h-27.3c-2.2,0-3.9-1.8-3.9-3.9v-27.3c0-2.2,1.8-3.9,3.9-3.9h27.3c2.2,0,3.9,1.8,3.9,3.9v27.3c0,2.2-1.8,3.9-3.9,3.9Z"/>
        <path class="cls-3" d="M261,465.9h-27.3c-2.2,0-3.9-1.8-3.9-3.9v-27.3c0-2.2,1.8-3.9,3.9-3.9h27.3c2.2,0,3.9,1.8,3.9,3.9v27.3c0,2.2-1.8,3.9-3.9,3.9Z"/>
        <path class="cls-4" d="M307.4,250.6h-96.9c-2,0-3.6-1.6-3.6-3.6v-26.9c0-2,1.6-3.6,3.6-3.6h96.9c2,0,3.5,1.6,3.5,3.6v26.9c0,2-1.6,3.6-3.5,3.6Z"/>
        <path class="cls-1" d="M307.4,216.6h-30c2,0,3.5,1.6,3.5,3.6v26.9c0,2-1.6,3.6-3.5,3.6h30c2,0,3.5-1.6,3.5-3.6v-26.9c0-2-1.6-3.6-3.5-3.6Z"/>
        <path class="cls-8" d="M471.2,362.4c-2.3-4.9-7.1-8-12.5-8H115.5c-61.4-92.3-12.7-226.1,93.1-257.6v112.4c-5.2.9-9.1,5.4-9.1,10.9v26.9c0,5.4,3.9,10,9.1,10.9v29c0,7.7,6.2,13.9,13.8,14.1v22.5c0,4.1,3.4,7.5,7.5,7.5h59.1c4.1,0,7.5-3.4,7.5-7.5v-22.5c7.6-.2,13.8-6.5,13.8-14.1v-29.2c4.7-1.3,8.2-5.6,8.2-10.7v-26.9c0-5.1-3.5-9.4-8.2-10.7v-87.2c-.3-9.9-14.7-9.9-15,0v86.8h-71.7V68.8h15.8s0,0,0,0h40s0,0,0,0h15.8v18.3c.3,9.9,14.7,9.9,15,0v-19.2c0-7.8-6.4-14.2-14.2-14.2h-9.2V7.5C286.9,3.4,283.5,0,279.4,0h-40c-4.1,0-7.5,3.4-7.5,7.5v46.3h-9.2c-7.8,0-14.2,6.4-14.2,14.2v13.2c-114.2,31.1-171.1,171.3-110.6,273.3h-44.7c-5.4,0-10.2,3.1-12.5,8-2.3,4.9-1.5,10.6,2,14.7l6.6,7.8c12.6,14.8,31,23.4,50.5,23.4h12.6v15h-11.9c-13.5,0-24.5,11-24.5,24.5v39.7c0,13.5,11,24.5,24.5,24.5h42.8c9.9-.3,9.9-14.7,0-15h-42.8c-5.3,0-9.5-4.3-9.5-9.5v-39.7c0-5.3,4.3-9.5,9.5-9.5h50.3v23.7c0,6.3,5.1,11.4,11.4,11.4h27.3c6.3,0,11.4-5.1,11.4-11.4v-23.7h21.3v23.7c0,6.3,5.1,11.4,11.4,11.4h27.3c6.3,0,11.4-5.1,11.4-11.4v-23.7h139c5.3,0,9.5,4.3,9.5,9.5v39.7c0,5.3-4.3,9.5-9.5,9.5h-232.5c-9.9.3-9.9,14.7,0,15h232.5c13.5,0,24.5-11,24.5-24.5v-39.7c0-13.5-11-24.5-24.5-24.5h-11.9v-15h12.6c19.5,0,37.9-8.5,50.5-23.4l6.6-7.8c3.5-4.1,4.3-9.8,2-14.7h0ZM246.9,15h25v38.8h-25V15ZM223.5,286v-27.9h71.7v27.9h-71.7ZM303.4,224.1v19h-89v-19h89ZM281.4,316h-44.1v-15h44.1v15ZM186,458.4h-20.1v-20.1h20.1v20.1ZM257.5,458.4h-20.1v-20.1h20.1v20.1ZM384.5,423.2H127.5v-15h257v15h0ZM451.1,375.1c-9.7,11.5-24,18.1-39,18.1H99.9c-15.1,0-29.3-6.6-39-18.1l-4.9-5.8h400.1l-4.9,5.8Z"/>
      </g>
    </g>
  </g>
</svg>