<?xml version="1.0" encoding="UTF-8"?>
<svg xmlns="http://www.w3.org/2000/svg" version="1.1" viewBox="0 0 512 512">
  <defs>
    <style>
      .cls-1 {
        fill: #fedba6;
      }

      .cls-2 {
        fill: #7acaa6;
      }

      .cls-3 {
        fill: #fdb97e;
      }

      .cls-4 {
        fill: #fea95c;
      }

      .cls-5 {
        fill: #57be92;
      }

      .cls-6 {
        fill: #a6e7f0;
      }

      .cls-7 {
        fill: #d4f2f6;
      }

      .cls-8 {
        fill: #fece85;
      }

      .cls-9 {
        fill: #0c2149;
      }
    </style>
  </defs>
  <!-- Generator: Adobe Illustrator 28.7.1, SVG Export Plug-In . SVG Version: 1.2.0 Build 142)  -->
  <g>
    <g id="Layer_1">
      <g>
        <path class="cls-7" d="M488.5,504.5H23.5c-8.8,0-16-7.2-16-16v-232c0-8.8,7.2-16,16-16h465c8.8,0,16,7.2,16,16v232c0,8.8-7.2,16-16,16Z"/>
        <path class="cls-6" d="M488.5,240.5h-30c8.8,0,16,7.2,16,16v232c0,8.8-7.2,16-16,16h30c8.8,0,16-7.2,16-16v-232c0-8.8-7.2-16-16-16h0Z"/>
        <g>
          <path class="cls-3" d="M148.3,372.5v45c0,19.3-15.7,35-35,35s-35-15.7-35-35v-45h70Z"/>
          <path class="cls-4" d="M118.3,372.5v45c0,14-8.2,26-20,31.6,4.5,2.2,9.6,3.4,15,3.4,19.3,0,35-15.7,35-35v-45h-30Z"/>
          <path class="cls-2" d="M148.3,327.5v45h-70v-45c0-19.3,15.7-35,35-35s35,15.7,35,35Z"/>
          <path class="cls-5" d="M113.3,292.5c-5.4,0-10.5,1.2-15,3.4,11.8,5.6,20,17.7,20,31.6v45h30v-45c0-19.3-15.7-35-35-35Z"/>
          <path class="cls-3" d="M291,372.5v45c0,19.3-15.7,35-35,35s-35-15.7-35-35v-45h70Z"/>
          <path class="cls-4" d="M261,372.5v45c0,14-8.2,26-20,31.6,4.5,2.2,9.6,3.4,15,3.4,19.3,0,35-15.7,35-35v-45h-30Z"/>
          <path class="cls-2" d="M291,327.5v45h-70v-45c0-19.3,15.7-35,35-35s35,15.7,35,35Z"/>
          <path class="cls-5" d="M256,292.5c-5.4,0-10.5,1.2-15,3.4,11.8,5.6,20,17.7,20,31.6v45h30v-45c0-19.3-15.7-35-35-35Z"/>
          <path class="cls-3" d="M433.7,372.5v45c0,19.3-15.7,35-35,35s-35-15.7-35-35v-45h70Z"/>
          <path class="cls-4" d="M403.7,372.5v45c0,14-8.2,26-20,31.6,4.5,2.2,9.6,3.4,15,3.4,19.3,0,35-15.7,35-35v-45h-30Z"/>
          <path class="cls-2" d="M433.7,327.5v45h-70v-45c0-19.3,15.7-35,35-35s35,15.7,35,35Z"/>
          <path class="cls-5" d="M398.7,292.5c-5.4,0-10.5,1.2-15,3.4,11.8,5.6,20,17.7,20,31.6v45h30v-45c0-19.3-15.7-35-35-35Z"/>
        </g>
        <path class="cls-1" d="M492.5,136.3c0,35.6-14.4,67.8-37.8,91.1-23.3,23.3-55.6,37.7-91.2,37.7h-67.3c-20.1,0-39.2-4.6-56.2-12.8-1.2-.6-2.6-.5-3.6.3l-67,46.3c-2.5,1.8-5.8-.9-4.7-3.7l30.4-76c.5-1.2.3-2.5-.5-3.6-17.1-21.9-27.3-49.4-27.3-79.3s14.4-67.8,37.8-91.1c23.3-23.3,55.6-37.7,91.2-37.7h67.3c71.2,0,129,57.7,129,128.8h0Z"/>
        <path class="cls-8" d="M363.5,7.5h-30c71.2,0,129,57.7,129,128.8s-14.4,67.8-37.8,91.1c-23.3,23.3-55.6,37.7-91.2,37.7h30c35.6,0,67.9-14.4,91.2-37.7,23.3-23.3,37.8-55.5,37.8-91.1,0-71.2-57.7-128.8-129-128.8h0Z"/>
        <path class="cls-5" d="M368.6,144.4c-22,39.3-38.2,72.5-38.2,72.5,0,0,39.1-12.6,61.2-51.8,18.6-33.2,15.3-74,13.8-84.2-.1-.9-1.4-1.2-1.8-.3-4,7.6-16.9,31.6-34.9,63.8Z"/>
        <path class="cls-5" d="M397.3,179.7c-31.7,23.2-66.9,37.3-66.9,37.3,0,0,42,12.4,76.2-7,29-16.5,33.9-56.7,34.8-66.6,0-.9-1-1.4-1.7-.8-5.1,5.4-20.4,21-42.4,37.1Z"/>
        <g>
          <path class="cls-2" d="M292.1,144.4c22,39.3,38.2,72.5,38.2,72.5,0,0-39.1-12.6-61.2-51.8-18.6-33.2-15.3-74-13.8-84.2.1-.9,1.4-1.2,1.8-.3,4,7.6,16.9,31.6,34.9,63.8Z"/>
          <path class="cls-2" d="M263.4,179.7c31.7,23.2,66.9,37.3,66.9,37.3,0,0-42,12.4-76.2-7-29-16.5-33.9-56.7-34.8-66.6,0-.9,1.1-1.4,1.7-.8,5.1,5.4,20.4,21,42.4,37.1Z"/>
          <path class="cls-2" d="M348.5,109.9c0,48.2-18.1,107.1-18.1,107.1,0,0-18.1-58.9-18.1-107.1s13.9-62.3,17.3-66.6c.4-.5,1.1-.5,1.5,0,3.4,4.3,17.3,24.3,17.3,66.6Z"/>
        </g>
        <g>
          <path class="cls-9" d="M155.8,417.5v-90c-2.1-56.3-82.9-56.3-85,0v90c2.1,56.3,82.9,56.3,85,0ZM85.8,327.5c1.4-36.4,53.6-36.4,55,0v37.5h-55v-37.5ZM85.8,417.5v-37.5h55v37.5c-1.4,36.4-53.6,36.4-55,0Z"/>
          <path class="cls-9" d="M298.5,417.5v-90c-2.1-56.3-82.9-56.3-85,0v90c2.1,56.3,82.9,56.3,85,0ZM228.5,327.5c1.4-36.4,53.6-36.4,55,0v37.5h-55v-37.5ZM228.5,417.5v-37.5h55v37.5c-1.4,36.4-53.6,36.4-55,0Z"/>
          <path class="cls-9" d="M441.2,417.5v-90c-2.1-56.3-82.9-56.3-85,0v90c2.1,56.3,82.9,56.3,85,0ZM371.2,327.5c1.4-36.4,53.6-36.4,55,0v37.5h-55v-37.5ZM371.2,417.5v-37.5h55v37.5c-1.4,36.4-53.6,36.4-55,0Z"/>
          <path class="cls-9" d="M488.5,233h-28.7c0,0,.2-.2.2-.2,44.7-43.2,52.8-116.6,19.2-168.8-2.2-3.5-6.8-4.6-10.3-2.4-3.5,2.2-4.6,6.8-2.4,10.3,29.9,46.4,22.7,111.7-17.1,150.2-23,22.9-53.5,35.5-85.9,35.5h-67.3c-18.6,0-36.4-4.1-52.9-12.1-3.6-1.7-7.9-1.4-11.2.8l-55.1,38.1,25-62.5c1.5-3.7.9-7.9-1.6-11-62.3-78.8-4.7-196.6,95.7-196.1h67.3c30.2,0,59.1,11.1,81.5,31.3,3.1,2.8,7.8,2.5,10.6-.5,2.8-3.1,2.5-7.8-.5-10.6C429.9,12.5,397.4,0,363.5,0h-67.3c-111.8-.6-176.8,129.7-108.9,218.5l-5.8,14.5H23.5C10.5,233,0,243.5,0,256.5v162.2c.3,9.9,14.7,9.9,15,0v-162.2c0-4.7,3.8-8.5,8.5-8.5h152.1l-17.8,44.4c-1.8,4.4-.5,9.3,3.2,12.2,1.9,1.6,4.3,2.3,6.6,2.3s4.2-.6,6-1.9l65.2-45c18,8.4,37.3,12.6,57.4,12.6h67.3c28.5,0,55.6-8.7,78.4-24.7.1,0,.3,0,.4,0h46.2c4.7,0,8.5,3.8,8.5,8.5v232c0,4.7-3.8,8.5-8.5,8.5H23.5c-4.7,0-8.5-3.8-8.5-8.5v-33.2c-.3-9.9-14.7-9.9-15,0v33.2c0,13,10.5,23.5,23.5,23.5h465c13,0,23.5-10.5,23.5-23.5v-232c0-13-10.5-23.5-23.5-23.5h0Z"/>
          <path class="cls-9" d="M226.5,137.5c-2.5-2.6-6.3-3.4-9.6-1.9-3.3,1.5-5.3,4.9-5,8.5,1.1,12.5,7,54.5,38.5,72.5,16.4,9.3,34.2,11.9,49,11.9s26.2-2.5,30.9-3.7c20.1,5.5,56.4,6.1,79.9-8.2,31.6-18,37.5-60,38.5-72.5.3-3.6-1.7-7-5-8.5-3.3-1.5-7.2-.7-9.6,1.9-5,5.3-18.1,18.6-37.1,33,.3-.5.6-1.1.9-1.6,21.3-37.9,15.4-83.8,14.7-88.9-.5-3.6-3.3-6.5-6.9-7.1-3.6-.6-7.2,1.1-8.9,4.4-2.3,4.8-32.2,58.9-45.8,83.5,9.2-46.9,5-99-14.2-122-3.2-4.2-10.1-4.2-13.2,0-19.3,23.1-23.3,75.3-14.2,122-3.4-6.3-7.1-13-10.9-19.8-18.2-32.5-31.3-56.9-34.8-63.6-1.7-3.3-5.3-5-8.9-4.4-3.6.6-6.4,3.5-6.9,7.1-.7,5.1-6.6,51,14.7,88.9.3.6.6,1.1.9,1.6-19-14.4-32.1-27.7-37.1-33h0ZM430.5,162.1c-9.1,38.3-37.4,52.8-74.2,51.1,12.9-6.5,29.5-15.9,45.4-27.5,11.6-8.5,21.3-16.8,28.8-23.6ZM375.2,148.1c9.6-17.1,17.7-31.8,23.8-43.1-.4,15.9-3.4,37.6-14,56.5-10.7,19.1-25.9,31.5-37.9,38.9,6.8-13.3,16.7-32.1,28-52.3h0ZM330.4,56.3c17.7,31.8,9.2,95.1,0,131.2-9.2-36.2-17.7-99.4,0-131.2ZM261.8,105c13,24.1,40.3,72.2,51.9,95.4-12-7.5-27.2-19.9-37.9-38.9-10.6-18.9-13.5-40.5-14-56.5h0ZM304.5,213.3c-37,1.6-65.1-12.9-74.2-51.1,7.5,6.9,17.2,15.2,28.8,23.6,15.9,11.6,32.5,21,45.4,27.5Z"/>
        </g>
      </g>
    </g>
  </g>
</svg>