<?xml version="1.0" encoding="UTF-8"?>
<svg xmlns="http://www.w3.org/2000/svg" version="1.1" viewBox="0 0 512 512">
  <defs>
    <style>
      .cls-1 {
        fill: #918291;
      }

      .cls-2 {
        fill: #e19974;
      }

      .cls-3 {
        fill: #dc8758;
      }

      .cls-4 {
        fill: #142248;
      }

      .cls-5 {
        fill: #7acaa6;
      }

      .cls-6 {
        fill: #6d6d6d;
      }

      .cls-7 {
        fill: #a79ba7;
      }

      .cls-8 {
        fill: #57be92;
      }

      .cls-9 {
        fill: #a6e7f0;
      }

      .cls-10 {
        fill: #d4f2f6;
      }
    </style>
  </defs>
  <!-- Generator: Adobe Illustrator 28.7.1, SVG Export Plug-In . SVG Version: 1.2.0 Build 142)  -->
  <g>
    <g id="Layer_1">
      <g>
        <path class="cls-6" d="M374.3,346l48.2,48.2-28.3,28.3-48.2-48.2,28.3-28.3Z"/>
        <circle class="cls-7" cx="218.5" cy="218.6" r="210.9"/>
        <path class="cls-1" d="M218.5,7.7c-5,0-10,.2-15,.5,109.5,7.7,195.9,98.9,195.9,210.4s-86.4,202.7-195.9,210.4c5,.3,10,.5,15,.5,116.5,0,210.9-94.4,210.9-210.9S335,7.7,218.5,7.7h0Z"/>
        <circle class="cls-10" cx="218.5" cy="218.6" r="180.9"/>
        <path class="cls-9" d="M218.5,37.6c-5,0-10,.2-15,.6,92.8,7.6,165.9,85.6,165.9,180.3s-73.2,172.7-165.9,180.3c4.9.4,9.9.6,15,.6,99.8,0,180.9-81.2,180.9-180.9S318.3,37.6,218.5,37.6h0Z"/>
        <path class="cls-2" d="M451.6,495.4l-51.5-51.5c-12.1-12.1-12.1-31.7,0-43.8,12.1-12.1,31.7-12.1,43.8,0l51.5,51.5c12.1,12.1,12.1,31.7,0,43.8-12.1,12.1-31.7,12.1-43.8,0Z"/>
        <path class="cls-3" d="M495.4,451.6l-51.5-51.5c-10-10-25.1-11.7-36.9-5.2,2.5,1.4,4.8,3.1,6.9,5.2l51.5,51.5c12.1,12.1,12.1,31.7,0,43.8-2.1,2.1-4.4,3.8-6.9,5.2,11.8,6.5,26.9,4.8,36.9-5.2,12.1-12.1,12.1-31.7,0-43.8h0Z"/>
        <path class="cls-8" d="M262.6,226.7c-22,39.3-38.2,72.5-38.2,72.5,0,0,39.1-12.6,61.2-51.8,18.6-33.2,15.3-73.9,13.8-84.2-.1-.9-1.4-1.2-1.8-.3-4,7.6-16.9,31.6-34.9,63.8h0Z"/>
        <path class="cls-8" d="M291.3,261.9c-31.7,23.2-66.9,37.3-66.9,37.3,0,0,42,12.4,76.2-7,29-16.5,33.9-56.7,34.8-66.6,0-.9-1-1.4-1.7-.8-5.1,5.4-20.4,21-42.4,37.1Z"/>
        <g>
          <path class="cls-5" d="M186.1,226.7c22,39.3,38.2,72.5,38.2,72.5,0,0-39.1-12.6-61.2-51.8-18.6-33.2-15.3-73.9-13.8-84.2.1-.9,1.4-1.2,1.8-.3,4,7.6,16.9,31.6,34.9,63.8h0Z"/>
          <path class="cls-5" d="M157.5,261.9c31.7,23.2,66.9,37.3,66.9,37.3,0,0-42,12.4-76.2-7-29-16.5-33.9-56.7-34.8-66.6,0-.9,1-1.4,1.7-.8,5.1,5.4,20.4,21,42.4,37.1h0Z"/>
          <path class="cls-5" d="M242.5,192.1c0,48.2-18.1,107.1-18.1,107.1,0,0-18.1-58.9-18.1-107.1s13.9-62.3,17.3-66.6c.4-.5,1.1-.5,1.5,0,3.4,4.3,17.3,24.3,17.3,66.6h0Z"/>
        </g>
        <g>
          <path class="cls-4" d="M30.1,218.6c0,103.9,84.5,188.4,188.4,188.4,249.7-9.5,249.6-367.5,0-376.9C114.6,30.1,30.1,114.7,30.1,218.6h0ZM392,218.6c0,95.6-77.8,173.5-173.4,173.5-229.8-8.7-229.7-338.2,0-346.9,95.6,0,173.4,77.8,173.4,173.5h0Z"/>
          <path class="cls-4" d="M500.7,446.3l-51.5-51.5c-7.2-7.2-16.7-11.2-26.8-11.3l-31.2-31.2c67-83.1,59.1-214-18.2-288.3-2.9-2.9-7.7-2.9-10.6,0-2.9,2.9-2.9,7.7,0,10.6,127.8,125.7,35.5,348.5-143.9,347.3-112.2,0-203.4-91.3-203.4-203.4C13.7,55,204.7-43.3,336.8,53c3.4,2.4,8.1,1.6,10.5-1.7,2.4-3.4,1.6-8.1-1.7-10.5C202.6-62.4-.9,42.2.1,218.6c-.9,180.4,210.5,283.7,352.2,172.7l31.2,31.2c.1,9.7,3.8,19.4,11.2,26.8l17.2,17.2c2.9,2.9,7.7,2.9,10.6,0,2.9-2.9,2.9-7.7,0-10.6l-17.2-17.2c-9.1-8.7-9.1-24.5,0-33.2,8.7-9.1,24.5-9.1,33.2,0l51.5,51.5c9.1,8.7,9.1,24.5,0,33.2-9.2,9.2-24.1,9.2-33.2,0l-9.4-9.4c-2.9-2.9-7.7-2.9-10.6,0-2.9,2.9-2.9,7.7,0,10.6l9.4,9.4c15,15,39.4,15,54.4,0,14.9-14.3,14.9-40.1,0-54.4h0ZM394.8,394.8c-3.1,3.1-5.5,6.6-7.4,10.3l-23.5-23.5c6.2-5.5,12.2-11.5,17.7-17.7l23.5,23.5c-3.8,1.8-7.2,4.3-10.3,7.4h0Z"/>
          <path class="cls-4" d="M217.7,120.9c-19.2,23.1-23.3,75.3-14.2,122-13.9-25.2-41.9-75.7-45.7-83.4-1.7-3.3-5.3-5-8.9-4.4-3.6.6-6.4,3.5-6.9,7.1-.7,5.1-6.6,51,14.7,88.9.3.6.6,1.1.9,1.6-19-14.4-32.1-27.7-37-32.9-2.5-2.6-6.3-3.4-9.6-1.9-3.3,1.5-5.3,4.9-5,8.5,1.1,12.5,7,54.5,38.5,72.5,23.4,14.4,59.9,13.7,79.9,8.2,20.1,5.5,56.4,6.1,79.9-8.2,31.6-18,37.5-60,38.5-72.5.3-3.6-1.7-7-5-8.5-3.3-1.5-7.2-.7-9.6,1.9-5,5.3-18.1,18.6-37,32.9.3-.5.6-1.1.9-1.6,21.3-37.9,15.4-83.8,14.7-88.9-.5-3.6-3.3-6.5-6.9-7.1-3.6-.6-7.2,1.1-8.9,4.4-3.7,7.6-31.9,58.3-45.7,83.4,9.2-47,5.1-98.8-14.2-122-1.6-2-4-3.2-6.6-3.2h0c-2.6,0-5,1.2-6.6,3.2ZM155.8,187.2c6.1,11.3,14.2,26,23.8,43.1,11.3,20.2,21.2,39,28,52.3-12-7.5-27.2-19.9-37.9-38.9-10.6-18.9-13.5-40.5-14-56.5h0ZM151.9,285.7c-16-9.1-23.8-26.9-27.6-41.3,17.9,17.5,52.8,41.2,74.2,51.1-13.7.6-31.2-1-46.6-9.8h0ZM324.5,244.4c-3.8,14.5-11.6,32.2-27.6,41.3-15.4,8.8-32.9,10.4-46.6,9.8,12.9-6.5,29.5-15.9,45.4-27.5,11.6-8.5,21.3-16.8,28.8-23.6h0ZM269.1,230.4c9.6-17.1,17.7-31.8,23.8-43.1-.2,39.4-18.2,75.3-51.8,95.4,6.8-13.3,16.7-32.1,28-52.3ZM235,192.1c0,26.4-5.7,56.4-10.6,77.6-9.2-36.2-17.7-99.3,0-131.2,4.7,9.3,10.6,26.5,10.6,53.6h0Z"/>
        </g>
      </g>
    </g>
  </g>
</svg>